<svg xmlns="http://www.w3.org/2000/svg" xmlns:xlink="http://www.w3.org/1999/xlink">
<!-- Download -->
  <symbol id="download" viewBox="0 0 10.6665 10.6667">
    <path d="M5.3335 8L2 4.66666L2.93311 3.7L4.6665 5.43333L4.6665 0L6 0L6 5.43333L7.7334 3.7L8.6665 4.66666L5.3335 8ZM1.3335 10.6667C0.966797 10.6667 0.652832 10.5361 0.391602 10.275C0.130371 10.0139 0 9.7 0 9.33334L0 7.33334L1.3335 7.33334L1.3335 9.33334L9.3335 9.33334L9.3335 7.33334L10.6665 7.33334L10.6665 9.33334C10.6665 9.7 10.5361 10.0139 10.2749 10.275C10.0137 10.5361 9.7002 10.6667 9.3335 10.6667L1.3335 10.6667Z" fill="#000000" fill-opacity="1.000000" fill-rule="nonzero"/>
  </symbol>

<!-- Contacts icons -->
  <symbol id="phone" viewBox="0 0 12 12">
    <path d="M11.2998 12C9.91113 12 8.53906 11.6972 7.18311 11.0917C5.82764 10.4861 4.59424 9.62778 3.4834 8.51666C2.37207 7.40555 1.51367 6.17221 0.908203 4.81668C0.302734 3.46112 0 2.0889 0 0.700012C0 0.5 0.0668945 0.333344 0.200195 0.200012C0.333496 0.0666809 0.5 0 0.700195 0L3.3999 0C3.55566 0 3.69434 0.0527649 3.81689 0.158325C3.93896 0.263885 4.01123 0.388885 4.0332 0.533325L4.4668 2.86667C4.48877 3.04443 4.4834 3.19446 4.4502 3.31668C4.4165 3.4389 4.35547 3.54443 4.2666 3.63333L2.6499 5.26666C2.87207 5.67776 3.13623 6.07501 3.44189 6.45834C3.74707 6.84167 4.0835 7.21112 4.4502 7.56668C4.79443 7.9111 5.15576 8.23056 5.5332 8.52499C5.91113 8.81946 6.31104 9.0889 6.7334 9.33334L8.2998 7.76666C8.3999 7.66666 8.53076 7.59167 8.69189 7.54166C8.85254 7.49167 9.01123 7.47778 9.1665 7.5L11.4668 7.96667C11.6221 8.01111 11.75 8.09167 11.8501 8.20834C11.9502 8.32501 12 8.45557 12 8.60001L12 11.3C12 11.5 11.9331 11.6667 11.7998 11.8C11.6665 11.9333 11.5 12 11.2998 12ZM2.0166 4L3.1167 2.89999L2.8335 1.33334L1.3501 1.33334C1.40576 1.78888 1.4834 2.23889 1.5835 2.68332C1.68311 3.12778 1.82764 3.56668 2.0166 4ZM7.9834 9.96667C8.4165 10.1555 8.8584 10.3055 9.30811 10.4167C9.7583 10.5278 10.2109 10.6 10.6665 10.6333L10.6665 9.16666L9.1001 8.85001L7.9834 9.96667Z" fill="#000000" fill-opacity="1.000000" fill-rule="nonzero"/>
  </symbol>

  <symbol id="email" viewBox="0 0 13.3335 10.6667">
    <path d="M1.3335 10.6667C0.966797 10.6667 0.652832 10.5361 0.391602 10.275C0.130371 10.0139 0 9.70001 0 9.33334L0 1.33334C0 0.966675 0.130371 0.652771 0.391602 0.391663C0.652832 0.130554 0.966797 0 1.3335 0L12 0C12.3667 0 12.6807 0.130554 12.9419 0.391663C13.2026 0.652771 13.3335 0.966675 13.3335 1.33334L13.3335 9.33334C13.3335 9.70001 13.2026 10.0139 12.9419 10.275C12.6807 10.5361 12.3667 10.6667 12 10.6667L1.3335 10.6667ZM6.6665 6L1.3335 2.66666L1.3335 9.33334L12 9.33334L12 2.66666L6.6665 6ZM6.6665 4.66666L12 1.33334L1.3335 1.33334L6.6665 4.66666ZM1.3335 2.66666L1.3335 1.33334L1.3335 9.33334L1.3335 2.66666Z" fill="#000000" fill-opacity="1.000000" fill-rule="nonzero"/>
  </symbol>
<!-- ARROWS -->
<!-- Arrow hero -->
  <symbol id="arrow-right-down" viewBox="0 0 12.866 12.866">
    <defs>
      <linearGradient id="paint_linear_1_100_0" x1="3.011903" y1="5.015977" x2="16.011904" y2="16.515972" gradientUnits="userSpaceOnUse">
        <stop stop-color="#FFFFFF"/>
        <stop offset="1.000000" stop-color="#9F9F9F"/>
      </linearGradient>
    </defs>
    <path d="M9.10181 10.516L0.494873 1.90897L1.90894 0.494976L10.5159 9.10197L10.5159 1.51598L12.5159 1.51598L12.5159 12.516L1.51587 12.516L1.51587 10.516L9.10083 10.516L9.10181 10.516Z" fill="url(#paint_linear_1_100_0)" fill-opacity="1.000000" fill-rule="nonzero"/>
    <path d="M0.494873 1.90897L1.90894 0.494976L10.5159 9.10197L10.5159 1.51598L12.5159 1.51598L12.5159 12.516L1.51587 12.516L1.51587 10.516L9.10083 10.516L9.10181 10.516L0.494873 1.90897Z" stroke="#000000" stroke-opacity="1.000000" stroke-width="0.700000"/>
  </symbol>

<!-- SOCIALS -->
  <symbol id="instagram" viewBox="0 0 16 16">
    <path d="M8 5.99997C7.46948 5.99997 6.96069 6.21069 6.58569 6.58575C6.21069 6.96085 6 7.46954 6 7.99997C6 8.53043 6.21069 9.03912 6.58569 9.41418C6.96069 9.78928 7.46948 9.99997 8 9.99997C8.53027 9.99997 9.03906 9.78928 9.41406 9.41418C9.78931 9.03912 10 8.53043 10 7.99997C10 7.46954 9.78931 6.96085 9.41406 6.58575C9.03906 6.21069 8.53027 5.99997 8 5.99997ZM8 4.66666C8.88403 4.66666 9.73193 5.01782 10.3569 5.64294C10.9822 6.26807 11.3333 7.11594 11.3333 7.99997C11.3333 8.88403 10.9822 9.73187 10.3569 10.357C9.73193 10.9821 8.88403 11.3333 8 11.3333C7.11597 11.3333 6.26807 10.9821 5.64282 10.357C5.01782 9.73187 4.6665 8.88403 4.6665 7.99997C4.6665 7.11594 5.01782 6.26807 5.64282 5.64294C6.26807 5.01782 7.11597 4.66666 8 4.66666ZM12.3333 4.49997C12.3333 4.72101 12.2454 4.93295 12.0891 5.08923C11.9329 5.24551 11.7209 5.33331 11.5 5.33331C11.2788 5.33331 11.0669 5.24551 10.9106 5.08923C10.7544 4.93295 10.6665 4.72101 10.6665 4.49997C10.6665 4.27896 10.7544 4.06702 10.9106 3.91074C11.0669 3.75446 11.2788 3.66666 11.5 3.66666C11.7209 3.66666 11.9329 3.75446 12.0891 3.91074C12.2454 4.06702 12.3333 4.27896 12.3333 4.49997ZM8 2.66666C6.35059 2.66666 6.0813 2.67133 5.31396 2.70532C4.79126 2.72998 4.44067 2.79999 4.11523 2.92664C3.82593 3.03864 3.61719 3.17264 3.39526 3.39532C3.18652 3.59692 3.02612 3.84305 2.92603 4.11533C2.79932 4.44199 2.72925 4.79199 2.70532 5.31396C2.67065 6.04999 2.6665 6.30731 2.6665 7.99997C2.6665 9.64932 2.67114 9.91864 2.70532 10.686C2.72998 11.208 2.7998 11.5593 2.92603 11.884C3.03931 12.174 3.17261 12.3827 3.3938 12.604C3.61865 12.828 3.82715 12.962 4.11401 13.0726C4.44336 13.2 4.79395 13.2707 5.31396 13.2946C6.0498 13.3293 6.30737 13.3333 8 13.3333C9.64917 13.3333 9.9187 13.3286 10.686 13.2946C11.2073 13.27 11.5586 13.2 11.884 13.074C12.1726 12.9613 12.3826 12.8273 12.604 12.606C12.8286 12.3813 12.9626 12.1726 13.0732 11.886C13.2 11.5573 13.2705 11.206 13.2947 10.686C13.3293 9.94998 13.3333 9.69266 13.3333 7.99997C13.3333 6.35065 13.3286 6.0813 13.2947 5.31396C13.27 4.79263 13.2 4.44064 13.0732 4.11533C12.9729 3.84332 12.8127 3.59729 12.6045 3.39532C12.4031 3.18655 12.157 3.02609 11.8845 2.92596C11.5579 2.79932 11.2073 2.72931 10.686 2.70532C9.94995 2.67065 9.69263 2.66666 8 2.66666ZM8 1.33331C9.81128 1.33331 10.0374 1.33997 10.7478 1.37332C11.458 1.40665 11.9412 1.51797 12.3667 1.68332C12.8066 1.85266 13.1772 2.08197 13.5479 2.45197C13.887 2.78525 14.1492 3.18839 14.3167 3.6333C14.4812 4.05798 14.5933 4.54199 14.6265 5.25198C14.658 5.96265 14.6665 6.18866 14.6665 7.99997C14.6665 9.81131 14.6599 10.0373 14.6265 10.748C14.5933 11.458 14.4812 11.9413 14.3167 12.3666C14.1497 12.8118 13.8875 13.2151 13.5479 13.548C13.2146 13.8869 12.8115 14.1491 12.3667 14.3167C11.9419 14.4813 11.458 14.5933 10.7478 14.6266C10.0374 14.658 9.81128 14.6667 8 14.6667C6.18848 14.6667 5.96265 14.66 5.25195 14.6266C4.54199 14.5933 4.05859 14.4813 3.6333 14.3167C3.18823 14.1496 2.78491 13.8873 2.4519 13.548C2.11279 13.2148 1.85059 12.8116 1.68335 12.3666C1.51782 11.942 1.40649 11.458 1.37329 10.748C1.3418 10.0373 1.33325 9.81131 1.33325 7.99997C1.33325 6.18866 1.33984 5.96265 1.37329 5.25198C1.40649 4.54132 1.51782 4.05865 1.68335 3.6333C1.8501 3.18811 2.11255 2.78485 2.4519 2.45197C2.78491 2.11279 3.18823 1.85046 3.6333 1.68332C4.05859 1.51797 4.54126 1.40665 5.25195 1.37332C5.96265 1.34198 6.18848 1.33331 8 1.33331Z" fill="inherit" fill-opacity="1.000000" fill-rule="nonzero"/>
  </symbol>

  <symbol id="facebook" viewBox="0 0 16 16">
    <path d="M9.3335 8.99997L11 8.99997L11.6667 6.33331L9.3335 6.33331L9.3335 4.99997C9.3335 4.31332 9.3335 3.66666 10.6667 3.66666L11.6667 3.66666L11.6667 1.42664C11.4495 1.39798 10.6287 1.33331 9.76196 1.33331C7.95215 1.33331 6.66675 2.43799 6.66675 4.46664L6.66675 6.33331L4.66675 6.33331L4.66675 8.99997L6.66675 8.99997L6.66675 14.6667L9.3335 14.6667L9.3335 8.99997Z" fill="inherit" fill-opacity="1.000000" fill-rule="nonzero"/>
  </symbol>

  <symbol id="linkedin" viewBox="0 0 16 16">
    <path d="M4.62671 3.33334C4.62646 3.68695 4.48584 4.02603 4.2356 4.27594C3.98535 4.52588 3.64624 4.66617 3.29272 4.66599C2.93896 4.66583 2.59985 4.52518 2.3501 4.27499C2.1001 4.02484 1.95972 3.68561 1.95996 3.332C1.96021 2.97836 2.10083 2.63931 2.35107 2.38937C2.60107 2.13947 2.94043 1.99915 3.29395 1.99933C3.64746 1.99951 3.98657 2.14014 4.23657 2.39032C4.48657 2.6405 4.62671 2.97971 4.62671 3.33334ZM4.66675 5.65332L2 5.65332L2 14L4.66675 14L4.66675 5.65332ZM8.87988 5.65332L6.22656 5.65332L6.22656 14L8.85327 14L8.85327 9.62C8.85327 7.17999 12.0332 6.95334 12.0332 9.62L12.0332 14L14.6667 14L14.6667 8.71332C14.6667 4.60001 9.95996 4.75333 8.85327 6.77332L8.87988 5.65332Z" fill="inherit" fill-opacity="1.000000" fill-rule="nonzero"/>
  </symbol>
  <!-- ======= -->
<!-- Section ABOUT -->
  <symbol id="rabbit" viewBox="0 0 14 20">
    <path d="M4.5 20C3.25 20 2.1875 19.5625 1.3125 18.6875C0.4375 17.8125 0 16.75 0 15.5C0 14.9167 0.141602 14.3792 0.425049 13.8875C0.708252 13.3958 1.2334 12.7666 2 12C2.1001 11.8999 2.1958 11.7959 2.2876 11.6875C2.37915 11.5791 2.5 11.4333 2.6499 11.25C1.80005 9.94995 1.14575 8.5874 0.6875 7.1626C0.229248 5.73755 0 4.3501 0 3C0 2.03345 0.175049 1.29175 0.524902 0.774902C0.875 0.258301 1.3667 0 2 0C2.94995 0 3.80005 0.458252 4.55005 1.375C5.30005 2.29175 5.8667 3.1333 6.25 3.8999C6.3999 4.2334 6.5376 4.5708 6.6626 4.9126C6.7876 5.25415 6.8999 5.6084 7 5.9751C7.1001 5.6084 7.2124 5.25415 7.3374 4.9126C7.4624 4.5708 7.6084 4.2334 7.7749 3.8999C8.1416 3.1333 8.69995 2.29175 9.44995 1.375C10.2 0.458252 11.05 0 12 0C12.6333 0 13.125 0.258301 13.4751 0.774902C13.825 1.29175 14 2.03345 14 3C14 4.3501 13.7708 5.73755 13.3125 7.1626C12.8542 8.5874 12.2 9.94995 11.3501 11.25C11.5 11.4333 11.6208 11.5791 11.7124 11.6875C11.8042 11.7959 11.8999 11.8999 12 12C12.7666 12.7666 13.2917 13.3958 13.575 13.8875C13.8584 14.3792 14 14.9167 14 15.5C14 16.75 13.5625 17.8125 12.6875 18.6875C11.8125 19.5625 10.75 20 9.5 20C8.75 20 8.14575 19.9167 7.6875 19.75L7 19.5L6.3125 19.75C5.85425 19.9167 5.25 20 4.5 20ZM4.5 18C4.8833 18 5.2666 17.9541 5.6499 17.8625C6.03345 17.7708 6.3916 17.6333 6.7251 17.45C6.54175 17.3667 6.375 17.2251 6.2251 17.0249C6.07495 16.825 6 16.6499 6 16.5C6 16.3667 6.09595 16.25 6.2876 16.1499C6.47925 16.05 6.71655 16 7 16C7.28345 16 7.52075 16.05 7.7124 16.1499C7.90405 16.25 8 16.3667 8 16.5C8 16.6499 7.92505 16.825 7.7749 17.0249C7.625 17.2251 7.45825 17.3667 7.2749 17.45C7.6084 17.6333 7.96655 17.7708 8.3501 17.8625C8.7334 17.9541 9.1167 18 9.5 18C10.2 18 10.7917 17.7583 11.2749 17.2749C11.7583 16.7917 12 16.2 12 15.5C12 15.2 11.9167 14.9084 11.75 14.625C11.5833 14.3416 11.3333 14.0583 11 13.7749C10.7666 13.575 10.575 13.3999 10.425 13.25C10.2749 13.1001 10.0334 12.8167 9.69995 12.3999C9.21655 11.8167 8.81665 11.4375 8.5 11.2625C8.18335 11.0874 7.68335 11 7 11C6.31665 11 5.8125 11.0874 5.48755 11.2625C5.1626 11.4375 4.7666 11.8167 4.30005 12.3999C3.96655 12.8167 3.7251 13.1001 3.57495 13.25C3.42505 13.3999 3.2334 13.575 3 13.7749C2.66675 14.0583 2.41675 14.3416 2.25 14.625C2.08325 14.9084 2 15.2 2 15.5C2 16.2 2.2417 16.7917 2.7251 17.2749C3.20825 17.7583 3.80005 18 4.5 18ZM5.5 14.75C5.3667 14.75 5.25 14.675 5.1499 14.5249C5.05005 14.375 5 14.2 5 14C5 13.8 5.05005 13.625 5.1499 13.4751C5.25 13.325 5.3667 13.25 5.5 13.25C5.6333 13.25 5.75 13.325 5.8501 13.4751C5.94995 13.625 6 13.8 6 14C6 14.2 5.94995 14.375 5.8501 14.5249C5.75 14.675 5.6333 14.75 5.5 14.75ZM8.5 14.75C8.3667 14.75 8.25 14.675 8.1499 14.5249C8.05005 14.375 8 14.2 8 14C8 13.8 8.05005 13.625 8.1499 13.4751C8.25 13.325 8.3667 13.25 8.5 13.25C8.6333 13.25 8.75 13.325 8.8501 13.4751C8.94995 13.625 9 13.8 9 14C9 14.2 8.94995 14.375 8.8501 14.5249C8.75 14.675 8.6333 14.75 8.5 14.75ZM4.07495 9.7749C4.2583 9.6416 4.46655 9.5249 4.69995 9.42505C4.93335 9.32495 5.19165 9.2334 5.4751 9.1499C5.44165 8.3501 5.3208 7.5542 5.11255 6.76245C4.90405 5.97095 4.6416 5.25 4.32495 4.6001C4.0083 3.93335 3.65845 3.37085 3.2749 2.9126C2.8916 2.4541 2.5083 2.15845 2.125 2.0249C2.09155 2.125 2.0625 2.25415 2.0376 2.4126C2.01245 2.5708 2 2.7666 2 3C2 4.1333 2.1792 5.28345 2.5376 6.44995C2.89575 7.6167 3.40845 8.7251 4.07495 9.7749ZM9.92505 9.7749C10.5916 8.7251 11.1042 7.6167 11.4624 6.44995C11.8208 5.28345 12 4.1333 12 3C12 2.7666 11.9875 2.5708 11.9624 2.4126C11.9375 2.25415 11.9084 2.125 11.875 2.0249C11.4917 2.15845 11.1084 2.4541 10.7251 2.9126C10.3416 3.37085 9.9917 3.93335 9.67505 4.6001C9.375 5.25 9.12085 5.97095 8.9126 6.76245C8.7041 7.5542 8.57495 8.3501 8.5249 9.1499C8.7749 9.21655 9.0166 9.3042 9.25 9.4126C9.4834 9.52075 9.70825 9.6416 9.92505 9.7749Z" fill="inherit" fill-opacity="1.000000" fill-rule="nonzero"/>
  </symbol>

  <symbol id="arrow-right" viewBox="0 0 16 16">
    <path d="M0 9L12.175 9L6.57495 14.6001L8 16L16 8L8 0L6.57495 1.3999L12.175 7L0 7L0 9Z" fill="inherit" fill-opacity="1.000000" fill-rule="nonzero"/>
  </symbol>

  <symbol id="team-lead" viewBox="0 0 20 18">
    <path d="M2 16L6 16L6 8L2 8L2 16ZM8 16L12 16L12 2L8 2L8 16ZM14 16L18 16L18 10L14 10L14 16ZM0 18L0 6L6 6L6 0L14 0L14 8L20 8L20 18L0 18Z" fill="inherit" fill-opacity="1.000000" fill-rule="nonzero"/>
  </symbol>

  <symbol id="documentation" viewBox="0 0 18 20">
    <path d="M3 20C2.16675 20 1.45825 19.7083 0.875 19.125C0.291748 18.5417 0 17.8333 0 17L0 14L3 14L3 0L4.5 1.5L6 0L7.5 1.5L9 0L10.5 1.5L12 0L13.5 1.5L15 0L16.5 1.5L18 0L18 17C18 17.8333 17.7083 18.5417 17.125 19.125C16.5417 19.7083 15.8333 20 15 20L3 20ZM15 18C15.2834 18 15.5208 17.9041 15.7124 17.7124C15.9041 17.5208 16 17.2834 16 17L16 3L5 3L5 14L14 14L14 17C14 17.2834 14.0959 17.5208 14.2876 17.7124C14.4792 17.9041 14.7166 18 15 18ZM6 7L6 5L12 5L12 7L6 7ZM6 10L6 8L12 8L12 10L6 10ZM14 7C13.7166 7 13.4792 6.90405 13.2876 6.7124C13.0959 6.52075 13 6.28345 13 6C13 5.71655 13.0959 5.47925 13.2876 5.2876C13.4792 5.09595 13.7166 5 14 5C14.2834 5 14.5208 5.09595 14.7124 5.2876C14.9041 5.47925 15 5.71655 15 6C15 6.28345 14.9041 6.52075 14.7124 6.7124C14.5208 6.90405 14.2834 7 14 7ZM14 10C13.7166 10 13.4792 9.90405 13.2876 9.7124C13.0959 9.52075 13 9.28345 13 9C13 8.71655 13.0959 8.47925 13.2876 8.2876C13.4792 8.09595 13.7166 8 14 8C14.2834 8 14.5208 8.09595 14.7124 8.2876C14.9041 8.47925 15 8.71655 15 9C15 9.28345 14.9041 9.52075 14.7124 9.7124C14.5208 9.90405 14.2834 10 14 10ZM3 18L12 18L12 16L2 16L2 17C2 17.2834 2.09595 17.5208 2.2876 17.7124C2.47925 17.9041 2.71655 18 3 18Z" fill="inherit" fill-opacity="1.000000" fill-rule="nonzero"/>
  </symbol>

  <symbol id="ios-development" viewBox="0 0 18 18">
    <path d="M2 18C1.4502 18 0.979004 17.8042 0.587402 17.4126C0.195801 17.0208 0 16.55 0 16L0 3.5C0 3.2666 0.0375977 3.0459 0.112305 2.8374C0.1875 2.62915 0.299805 2.43335 0.450195 2.25L1.8501 0.550049C2 0.366699 2.1709 0.229248 2.3623 0.137451C2.5542 0.0458984 2.7666 0 3 0L15 0C15.2334 0 15.4458 0.0458984 15.6377 0.137451C15.8291 0.229248 16 0.366699 16.1499 0.550049L17.5498 2.25C17.7002 2.43335 17.8125 2.62915 17.8877 2.8374C17.9624 3.0459 18 3.2666 18 3.5L18 16C18 16.55 17.8042 17.0208 17.4126 17.4126C17.021 17.8042 16.5498 18 16 18L2 18ZM2.3999 3L15.6001 3L14.75 2L3.25 2L2.3999 3ZM2 16L16 16L16 5L2 5L2 16ZM11.5498 14.05L15.1001 10.5L11.5498 6.94995L10.1001 8.3999L12.2002 10.5L10.1001 12.6001L11.5498 14.05ZM6.5 14.05L7.9502 12.6001L5.8501 10.5L7.9502 8.3999L6.5 6.94995L2.9502 10.5L6.5 14.05Z" fill="inherit" fill-opacity="1.000000" fill-rule="nonzero"/>
  </symbol>

  <symbol id="design" viewBox="0 0 22 22">
    <path d="M2 20C1.8667 20 1.73755 19.9709 1.61255 19.9126C1.48755 19.8542 1.3833 19.7834 1.30005 19.7C1.1001 19.5166 1 19.2876 1 19.0125C1 18.7375 1.09155 18.5 1.2749 18.3C1.59155 17.9666 1.97095 17.7666 2.4126 17.7C2.85425 17.6333 3.30005 17.6416 3.75 17.7251C3.8833 17.7583 4.0083 17.7917 4.125 17.825C4.2417 17.8584 4.34155 17.8333 4.42505 17.75C4.5249 17.6499 4.5625 17.5249 4.5376 17.375C4.51245 17.2251 4.4834 17.0833 4.44995 16.95C4.3833 16.5 4.375 16.0542 4.42505 15.6125C4.4751 15.1709 4.65845 14.7834 4.9751 14.45C5.29175 14.1167 5.6709 13.9167 6.11255 13.8501C6.5542 13.7834 7 13.7917 7.44995 13.875C7.58325 13.9084 7.7124 13.9417 7.8374 13.9751C7.9624 14.0083 8.06665 13.9834 8.1499 13.8999C8.25 13.8 8.28345 13.675 8.25 13.5249C8.21655 13.375 8.18335 13.2334 8.1499 13.1001C8.08325 12.6499 8.07495 12.2041 8.125 11.7625C8.17505 11.3208 8.3584 10.9333 8.67505 10.6001C8.9917 10.2666 9.37085 10.0667 9.8125 10C10.2542 9.93335 10.7 9.94165 11.1499 10.0249C11.2834 10.0583 11.4126 10.0916 11.5376 10.125C11.6626 10.1584 11.7666 10.1333 11.8501 10.05C11.95 9.94995 11.9834 9.82495 11.95 9.67505C11.9167 9.5249 11.8833 9.3833 11.8501 9.25C11.7834 8.80005 11.7791 8.35425 11.8374 7.9126C11.8958 7.47095 12.0833 7.08325 12.3999 6.75C12.7166 6.41675 13.0959 6.21655 13.5376 6.1499C13.9792 6.08325 14.425 6.09155 14.875 6.17505C15.0083 6.20825 15.1375 6.2417 15.2625 6.2749C15.3875 6.30835 15.4917 6.28345 15.575 6.19995C15.675 6.1001 15.7083 5.9751 15.675 5.82495C15.6416 5.67505 15.6084 5.53345 15.575 5.3999C15.5083 4.94995 15.5042 4.50415 15.5625 4.0625C15.6208 3.62085 15.8083 3.2334 16.125 2.8999C16.4417 2.56665 16.8208 2.3667 17.2625 2.30005C17.7041 2.2334 18.1499 2.2417 18.6001 2.32495C18.7334 2.3584 18.8625 2.38745 18.9875 2.4126C19.1125 2.4375 19.2166 2.40845 19.3 2.32495C19.4834 2.125 19.7124 2.0249 19.9875 2.0249C20.2625 2.0249 20.5 2.1167 20.7 2.30005C20.8999 2.4834 21 2.7124 21 2.98755C21 3.26245 20.9084 3.5 20.7251 3.69995C20.4084 4.03345 20.0291 4.23755 19.5874 4.3125C19.1458 4.38745 18.7 4.3833 18.25 4.30005C18.1167 4.2666 17.9875 4.2334 17.8625 4.19995C17.7375 4.16675 17.6333 4.19165 17.55 4.2749C17.45 4.375 17.4167 4.5 17.45 4.6499C17.4834 4.80005 17.5166 4.94165 17.55 5.07495C17.6167 5.5249 17.6208 5.97095 17.5625 6.4126C17.5042 6.85425 17.3167 7.2417 17 7.57495C16.6833 7.90845 16.3042 8.1084 15.8625 8.17505C15.4209 8.2417 14.9751 8.2334 14.5249 8.1499C14.3916 8.1167 14.2666 8.08325 14.1499 8.05005C14.0334 8.0166 13.9333 8.04175 13.8501 8.125C13.75 8.2251 13.7124 8.3501 13.7375 8.5C13.7625 8.6499 13.7917 8.79175 13.825 8.92505C13.8916 9.375 13.8999 9.8208 13.8501 10.2625C13.8 10.7041 13.6167 11.0916 13.3 11.425C12.9834 11.7417 12.6042 11.9375 12.1626 12.0125C11.7209 12.0874 11.2749 12.0833 10.825 12C10.6917 11.9666 10.5667 11.9375 10.45 11.9126C10.3333 11.8875 10.2334 11.9167 10.1499 12C10.05 12.1001 10.0125 12.2209 10.0376 12.3625C10.0625 12.5042 10.0916 12.6416 10.125 12.7749C10.1917 13.2251 10.2 13.6709 10.1499 14.1125C10.1001 14.5542 9.91675 14.9417 9.6001 15.2749C9.28345 15.6084 8.8999 15.8083 8.44995 15.875C8 15.9417 7.55005 15.9333 7.1001 15.8501C6.96655 15.8167 6.84155 15.7876 6.7251 15.7625C6.6084 15.7375 6.5083 15.7666 6.42505 15.8501C6.32495 15.95 6.29175 16.0708 6.32495 16.2124C6.3584 16.3542 6.3916 16.4917 6.42505 16.625C6.4917 17.075 6.49585 17.5208 6.4375 17.9624C6.37915 18.4041 6.19165 18.7917 5.875 19.125C5.55835 19.4583 5.1792 19.6584 4.73755 19.7251C4.2959 19.7917 3.8501 19.7834 3.3999 19.7C3.2666 19.6667 3.1416 19.6375 3.0249 19.6125C2.90845 19.5874 2.80835 19.6167 2.7251 19.7C2.625 19.8 2.51245 19.875 2.38745 19.925C2.26245 19.9751 2.1333 20 2 20ZM5 10C3.6167 10 2.4375 9.51245 1.4624 8.5376C0.487549 7.5625 0 6.3833 0 5C0 3.6001 0.487549 2.41675 1.4624 1.44995C2.4375 0.483398 3.6167 0 5 0C6.3999 0 7.58325 0.483398 8.55005 1.44995C9.5166 2.41675 10 3.6001 10 5C10 6.3833 9.5166 7.5625 8.55005 8.5376C7.58325 9.51245 6.3999 10 5 10ZM5 8C5.8501 8 6.5625 7.70825 7.13745 7.125C7.7124 6.54175 8 5.83325 8 5C8 4.1499 7.7124 3.4375 7.13745 2.86255C6.5625 2.2876 5.8501 2 5 2C4.16675 2 3.45825 2.2876 2.875 2.86255C2.29175 3.4375 2 4.1499 2 5C2 5.83325 2.29175 6.54175 2.875 7.125C3.45825 7.70825 4.16675 8 5 8ZM15 22C14.45 22 13.9792 21.8042 13.5874 21.4126C13.1958 21.0208 13 20.55 13 20L13 15C13 14.45 13.1958 13.9792 13.5874 13.5874C13.9792 13.1958 14.45 13 15 13L20 13C20.55 13 21.0208 13.1958 21.4126 13.5874C21.8042 13.9792 22 14.45 22 15L22 20C22 20.55 21.8042 21.0208 21.4126 21.4126C21.0208 21.8042 20.55 22 20 22L15 22ZM15 20L20 20L20 15L15 15L15 20Z" fill="inherit" fill-opacity="1.000000" fill-rule="nonzero"/>
  </symbol>

  <symbol id="web-development" viewBox="0 0 18 18">
    <path d="M5.6001 12.6001L2 9L5.6001 5.3999L7 6.82495L4.82495 9L7 11.175L5.6001 12.6001ZM12.3999 12.6001L11 11.175L13.175 9L11 6.82495L12.3999 5.3999L16 9L12.3999 12.6001ZM2 18C1.44995 18 0.979248 17.8042 0.587402 17.4126C0.195801 17.0208 0 16.55 0 16L0 12L2 12L2 16L6 16L6 18L2 18ZM12 18L12 16L16 16L16 12L18 12L18 16C18 16.55 17.8042 17.0208 17.4126 17.4126C17.0208 17.8042 16.55 18 16 18L12 18ZM0 6L0 2C0 1.44995 0.195801 0.979248 0.587402 0.587402C0.979248 0.195801 1.44995 0 2 0L6 0L6 2L2 2L2 6L0 6ZM16 6L16 2L12 2L12 0L16 0C16.55 0 17.0208 0.195801 17.4126 0.587402C17.8042 0.979248 18 1.44995 18 2L18 6L16 6Z" fill="inherit" fill-opacity="1.000000" fill-rule="nonzero"/>
  </symbol>

  <symbol id="presentation" viewBox="0 0 20 20">
    <path d="M15 6C14.7168 6 14.479 5.90405 14.2876 5.7124C14.0957 5.52075 14 5.28345 14 5C14 4.71655 14.0957 4.47925 14.2876 4.2876C14.479 4.09595 14.7168 4 15 4C15.2832 4 15.521 4.09595 15.7124 4.2876C15.9043 4.47925 16 4.71655 16 5C16 5.28345 15.9043 5.52075 15.7124 5.7124C15.521 5.90405 15.2832 6 15 6ZM7 12L9.7002 8.5L11.25 10.5L13.5498 7.5L17 12L7 12ZM2 20C1.4502 20 0.979004 19.8042 0.587402 19.4126C0.195801 19.0208 0 18.55 0 18L0 4L2 4L2 18L16 18L16 20L2 20ZM4 7.375L4 2C4 1.44995 4.1958 0.979248 4.5874 0.587402C4.979 0.195801 5.4502 0 6 0L11 0L11 2L6 2L6 7.375L4 7.375ZM6 16C5.4502 16 4.979 15.8042 4.5874 15.4126C4.1958 15.0208 4 14.55 4 14L4 9.375L6 9.375L6 14L11 14L11 16L6 16ZM13 16L13 14L18 14L18 9.375L20 9.375L20 14C20 14.55 19.8042 15.0208 19.4126 15.4126C19.021 15.8042 18.5498 16 18 16L13 16ZM18 7.375L18 2L13 2L13 0L18 0C18.5498 0 19.021 0.195801 19.4126 0.587402C19.8042 0.979248 20 1.44995 20 2L20 7.375L18 7.375Z" fill="inherit" fill-opacity="1.000000" fill-rule="nonzero"/>
  </symbol>

  <symbol id="problem-solving" viewBox="0 0 18 16">
    <path d="M0 16L0 14L2.75 14L2.3501 13.6499C1.4834 12.8833 0.875 12.0083 0.524902 11.0249C0.174805 10.0417 0 9.05005 0 8.05005C0 6.19995 0.554199 4.5542 1.6626 3.11255C2.771 1.6709 4.2168 0.716553 6 0.25L6 2.3501C4.7998 2.78345 3.8335 3.52075 3.1001 4.5625C2.3667 5.60425 2 6.7666 2 8.05005C2 8.80005 2.1416 9.52905 2.4248 10.2375C2.7085 10.9458 3.1499 11.6001 3.75 12.2L4 12.45L4 10L6 10L6 16L0 16ZM9 13C8.7168 13 8.479 12.9041 8.2876 12.7124C8.0957 12.5208 8 12.2834 8 12C8 11.7166 8.0957 11.4792 8.2876 11.2876C8.479 11.0959 8.7168 11 9 11C9.2832 11 9.521 11.0959 9.7124 11.2876C9.9043 11.4792 10 11.7166 10 12C10 12.2834 9.9043 12.5208 9.7124 12.7124C9.521 12.9041 9.2832 13 9 13ZM8 9L8 3L10 3L10 9L8 9ZM12 15.75L12 13.6499C13.2002 13.2166 14.1665 12.4792 14.8999 11.4375C15.6333 10.3958 16 9.2334 16 7.94995C16 7.19995 15.8584 6.47095 15.5752 5.76245C15.2915 5.0542 14.8501 4.3999 14.25 3.80005L14 3.55005L14 6L12 6L12 0L18 0L18 2L15.25 2L15.6499 2.3501C16.4668 3.16675 17.0625 4.0542 17.4375 5.01245C17.8125 5.97095 18 6.94995 18 7.94995C18 9.80005 17.4458 11.4458 16.3374 12.8875C15.229 14.3291 13.7832 15.2834 12 15.75Z" fill="inherit" fill-opacity="1.000000" fill-rule="nonzero"/>
  </symbol>

  <symbol id="planing" viewBox="0 0 18 16">
    <path d="M3 16C2.16675 16 1.45825 15.7083 0.875 15.125C0.291748 14.5417 0 13.8333 0 13C0 12.1667 0.291748 11.4583 0.875 10.875C1.45825 10.2917 2.16675 10 3 10C3.83325 10 4.54175 10.2917 5.125 10.875C5.70825 11.4583 6 12.1667 6 13C6 13.8333 5.70825 14.5417 5.125 15.125C4.54175 15.7083 3.83325 16 3 16ZM15 16C14.1667 16 13.4583 15.7083 12.875 15.125C12.2917 14.5417 12 13.8333 12 13C12 12.1667 12.2917 11.4583 12.875 10.875C13.4583 10.2917 14.1667 10 15 10C15.8333 10 16.5417 10.2917 17.125 10.875C17.7083 11.4583 18 12.1667 18 13C18 13.8333 17.7083 14.5417 17.125 15.125C16.5417 15.7083 15.8333 16 15 16ZM9 6C8.16675 6 7.45825 5.70825 6.875 5.125C6.29175 4.54175 6 3.83325 6 3C6 2.16675 6.29175 1.45825 6.875 0.875C7.45825 0.291748 8.16675 0 9 0C9.83325 0 10.5417 0.291748 11.125 0.875C11.7083 1.45825 12 2.16675 12 3C12 3.83325 11.7083 4.54175 11.125 5.125C10.5417 5.70825 9.83325 6 9 6Z" fill="inherit" fill-opacity="1.000000" fill-rule="nonzero"/>
  </symbol>

  <symbol id="analitical" viewBox="0 0 19.0117 20">
    <path d="M9.2749 13.5249C10.4417 13.5249 11.4333 13.1499 12.25 12.3999C13.0667 11.6499 13.4751 10.7417 13.4751 9.67505C13.4751 8.7251 13.1709 7.9209 12.5625 7.26245C11.9541 6.60425 11.2166 6.2749 10.3501 6.2749C9.56665 6.2749 8.90405 6.5249 8.36255 7.0249C7.8208 7.5249 7.55005 8.1416 7.55005 8.875C7.55005 9.19165 7.61255 9.5 7.73755 9.80005C7.86255 10.1001 8.04175 10.375 8.2749 10.625L9.69995 9.19995C9.6499 9.16675 9.61255 9.125 9.5874 9.07495C9.5625 9.0249 9.55005 8.96655 9.55005 8.8999C9.55005 8.71655 9.625 8.5708 9.7749 8.4624C9.92505 8.35425 10.1167 8.30005 10.3501 8.30005C10.6833 8.30005 10.9583 8.4375 11.175 8.7124C11.3916 8.98755 11.5 9.31665 11.5 9.69995C11.5 10.2166 11.2876 10.6541 10.8625 11.0125C10.4375 11.3708 9.91675 11.55 9.30005 11.55C8.5166 11.55 7.85425 11.2334 7.3125 10.6001C6.77075 9.96655 6.5 9.19165 6.5 8.2749C6.5 7.79175 6.59155 7.3291 6.7749 6.88745C6.95825 6.4458 7.21655 6.05835 7.55005 5.7251L6.125 4.30005C5.59155 4.81665 5.18335 5.41675 4.8999 6.1001C4.6167 6.78345 4.4751 7.5 4.4751 8.25C4.4751 9.71655 4.94165 10.9624 5.875 11.9875C6.80835 13.0125 7.94165 13.5249 9.2749 13.5249ZM3 20L3 15.7C2.05005 14.8333 1.3125 13.8208 0.787598 12.6626C0.262451 11.5042 0 10.2834 0 9C0 6.5 0.875 4.375 2.625 2.625C4.375 0.875 6.5 0 9 0C11.0833 0 12.9292 0.612549 14.5376 1.8374C16.1458 3.0625 17.1917 4.65845 17.675 6.625L18.9751 11.75C19.0583 12.0667 19 12.3542 18.8 12.6125C18.6001 12.8708 18.3333 13 18 13L16 13L16 16C16 16.55 15.8042 17.0208 15.4126 17.4126C15.0208 17.8042 14.55 18 14 18L12 18L12 20L10 20L10 16L14 16L14 11L16.7 11L15.75 7.125C15.3667 5.6084 14.55 4.375 13.3 3.42505C12.05 2.4751 10.6167 2 9 2C7.06665 2 5.41675 2.67505 4.05005 4.0249C2.68335 5.375 2 7.0166 2 8.94995C2 9.94995 2.2041 10.8999 2.61255 11.8C3.02075 12.7 3.6001 13.5 4.3501 14.2L5 14.8L5 20L3 20Z" fill="inherit" fill-opacity="1.000000" fill-rule="nonzero"/>
  </symbol>

<!-- APPLICATIONS -->
<!-- MS WORD -->
  <symbol id="microsoft-word" viewBox="0 0 48 48">
    <defs>
      <clipPath>
        <rect width="20.000000" height="20.000000" transform="translate(14.000000 14.000000)" fill="white" fill-opacity="0"/>
      </clipPath>
      <clipPath>
        <rect rx="24.000000" width="48.000000" height="48.000000" fill="white" fill-opacity="0"/>
      </clipPath>
    </defs>
    <rect rx="24.000000" width="48.000000" height="48.000000" fill="#2A5699" fill-opacity="1.000000"/>
    <g clip-path="url(#clip37_682)">
      <rect width="20.000000" height="20.000000" transform="translate(14.000000 14.000000)" fill="#FFFFFF" fill-opacity="0"/>
      <g clip-path="url(#clip37_683)">
        <path d="M24.4526 14L25.811 14L25.811 15.8604C28.2417 15.8745 30.6704 15.835 33.0986 15.8745C33.6167 15.8208 34.0234 16.2324 33.9756 16.7627C34.0142 21.3442 33.9668 25.9277 33.9985 30.5093C33.9756 30.979 34.0439 31.5 33.7778 31.916C33.4463 32.1577 33.0166 32.1279 32.6309 32.146C30.3564 32.1348 28.085 32.1396 25.811 32.1396L25.811 34L24.3916 34C20.9341 33.3535 17.4678 32.7607 14.0034 32.1396C14.001 26.7139 14.0034 21.2886 14.0034 15.8652C17.4858 15.2417 20.9702 14.6348 24.4526 14Z" fill="#FFFFFF" fill-opacity="1.000000" fill-rule="nonzero"/>
        <path d="M25.8105 16.5581L33.3071 16.5581L33.3071 31.4419L25.8105 31.4419L25.8105 29.5815L31.7168 29.5815L31.7168 28.6514L25.8105 28.6514L25.8105 27.4883L31.7168 27.4883L31.7168 26.5581L25.8105 26.5581L25.8105 25.3955L31.7168 25.3955L31.7168 24.4648L25.8105 24.4648L25.8105 23.3022L31.7168 23.3022L31.7168 22.3721L25.8105 22.3721L25.8105 21.2095L31.7168 21.2095L31.7168 20.2788L25.8105 20.2788L25.8105 19.1162L31.7168 19.1162L31.7168 18.186L25.8105 18.186L25.8105 16.5581ZM18.6958 20.6675C19.1274 20.6416 19.5591 20.623 19.9907 20.6001C20.293 22.1699 20.6016 23.7373 20.9287 25.2998C21.1855 23.686 21.4697 22.0767 21.7441 20.4648C22.1987 20.4487 22.6528 20.4233 23.105 20.3955C22.5918 22.6489 22.1421 24.9209 21.5806 27.1602C21.2012 27.3628 20.6333 27.1509 20.1836 27.1836C19.8813 25.644 19.5293 24.1138 19.2588 22.5674C18.9932 24.0698 18.6479 25.5581 18.3438 27.0513C17.9072 27.0278 17.4692 27 17.0303 26.9697C16.6533 24.9233 16.2104 22.8906 15.8584 20.8394C16.2466 20.8208 16.6377 20.8047 17.0259 20.7905C17.2598 22.272 17.5259 23.7466 17.73 25.23C18.0508 23.7095 18.3779 22.1885 18.6958 20.6675Z" fill="#2A5699" fill-opacity="1.000000" fill-rule="nonzero"/>
      </g>
    </g>
  </symbol>
<!-- MS EXCEL -->
  <symbol id="microsoft-excel" viewBox="0 0 48 48">
    <defs>
      <clipPath>
        <rect width="21.000000" height="20.000000" transform="translate(14.000000 14.000000)" fill="white" fill-opacity="0"/>
      </clipPath>
      <clipPath>
        <rect rx="24.000000" width="48.000000" height="48.000000" fill="white" fill-opacity="0"/>
      </clipPath>
    </defs>
    <rect rx="24.000000" width="48.000000" height="48.000000" fill="#207245" fill-opacity="1.000000"/>
    <g clip-path="url(#clip37_686)">
      <rect width="21.000000" height="20.000000" transform="translate(14.000000 14.000000)" fill="#FFFFFF" fill-opacity="0"/>
      <g clip-path="url(#clip37_687)">
        <path d="M24.9829 14L26.3999 14L26.3999 15.8604C28.7876 15.8604 31.1748 15.8652 33.5625 15.8535C33.9658 15.8696 34.4092 15.8418 34.7598 16.0767C35.0054 16.4209 34.9771 16.8579 34.9937 17.2534C34.9819 21.2905 34.9863 25.3257 34.9893 29.3604C34.9771 30.0371 35.0532 30.728 34.9077 31.3955C34.8125 31.8789 34.2163 31.8906 33.8179 31.9067C31.3467 31.9141 28.8735 31.9023 26.3999 31.9067L26.3999 34L24.9185 34C21.2832 33.356 17.6411 32.7607 14.0015 32.1396L14.0015 15.8628C17.6631 15.2417 21.3242 14.6304 24.9829 14Z" fill="#FFFFFF" fill-opacity="1.000000" fill-rule="nonzero"/>
        <path d="M26.3999 16.5581L34.271 16.5581L34.271 31.2095L26.3999 31.2095L26.3999 29.814L28.3081 29.814L28.3081 28.186L26.3999 28.186L26.3999 27.2559L28.3081 27.2559L28.3081 25.6279L26.3999 25.6279L26.3999 24.6978L28.3081 24.6978L28.3081 23.0698L26.3999 23.0698L26.3999 22.1396L28.3081 22.1396L28.3081 20.5117L26.3999 20.5117L26.3999 19.5815L28.3081 19.5815L28.3081 17.9536L26.3999 17.9536L26.3999 16.5581Z" fill="#207245" fill-opacity="1.000000" fill-rule="nonzero"/>
        <path d="M29.2622 17.9536L32.6016 17.9536L32.6016 19.5815L29.2622 19.5815L29.2622 17.9536Z" fill="#FFFFFF" fill-opacity="1.000000" fill-rule="nonzero"/>
        <path d="M21.0664 20.1323C21.6055 20.0952 22.147 20.0625 22.6885 20.0371C22.0522 21.3105 21.4106 22.5811 20.7637 23.8486C21.4194 25.1509 22.0894 26.4438 22.748 27.7461C22.1738 27.7144 21.5996 27.6787 21.0259 27.6392C20.6206 26.6694 20.1265 25.7324 19.8354 24.7183C19.5112 25.6626 19.0483 26.5532 18.6768 27.479C18.1543 27.4717 17.6318 27.4512 17.1094 27.4302C17.7222 26.2603 18.314 25.0811 18.9458 23.9185C18.4092 22.7207 17.8198 21.5464 17.2666 20.3555C17.7915 20.3252 18.3159 20.2949 18.8408 20.2671C19.1963 21.1768 19.585 22.0742 19.8784 23.0068C20.1934 22.0186 20.6631 21.0884 21.0664 20.1323Z" fill="#207245" fill-opacity="1.000000" fill-rule="nonzero"/>
        <path d="M29.2622 20.5117L32.6016 20.5117L32.6016 22.1396L29.2622 22.1396L29.2622 20.5117ZM29.2622 23.0698L32.6016 23.0698L32.6016 24.6978L29.2622 24.6978L29.2622 23.0698ZM29.2622 25.6279L32.6016 25.6279L32.6016 27.2559L29.2622 27.2559L29.2622 25.6279ZM29.2622 28.186L32.6016 28.186L32.6016 29.814L29.2622 29.814L29.2622 28.186Z" fill="#FFFFFF" fill-opacity="1.000000" fill-rule="nonzero"/>
      </g>
    </g>
  </symbol>
  <!-- MS POWER POINT -->
  <symbol id="microsoft-powerpoint" viewBox="0 0 48 48">
    <defs>
      <clipPath>
        <rect width="21.000000" height="20.000000" transform="translate(14.000000 14.000000)" fill="white" fill-opacity="0"/>
      </clipPath>
      <clipPath>
        <rect rx="24.000000" width="48.000000" height="48.000000" fill="white" fill-opacity="0"/>
      </clipPath>
    </defs>
    <rect rx="24.000000" width="48.000000" height="48.000000" fill="#D24625" fill-opacity="1.000000"/>
    <g clip-path="url(#clip37_693)">
      <rect width="21.000000" height="20.000000" transform="translate(14.000000 14.000000)" fill="#FFFFFF" fill-opacity="0"/>
      <g clip-path="url(#clip37_694)">
        <path d="M25.0488 14L26.4014 14L26.4014 16.0933C28.9512 16.1069 31.5034 16.0674 34.0508 16.1045C34.5991 16.0532 35.0288 16.4697 34.9736 17.0044C35.0142 21.3486 34.9644 25.6953 34.9976 30.0415C34.9736 30.5112 35.0454 31.0322 34.7686 31.4487C34.4204 31.6953 33.9673 31.6626 33.5591 31.6812C31.1743 31.6694 28.7891 31.6743 26.4014 31.6743L26.4014 34L24.918 34C21.2827 33.3535 17.6406 32.7627 14.0029 32.1392C14.0005 26.7139 14.0029 21.2881 14.0029 15.8647C17.6831 15.2441 21.3638 14.6118 25.0488 14Z" fill="#FFFFFF" fill-opacity="1.000000" fill-rule="nonzero"/>
        <path d="M26.4014 16.7905L34.2725 16.7905L34.2725 30.9766L26.4014 30.9766L26.4014 29.1162L32.126 29.1162L32.126 28.186L26.4014 28.186L26.4014 27.0229L32.126 27.0229L32.126 26.0928L26.4038 26.0928C26.4014 25.6372 26.4014 25.1812 26.3994 24.7256C27.3438 25.0112 28.4194 25.0044 29.2642 24.4507C30.1777 23.9229 30.6548 22.916 30.7334 21.9111C29.686 21.9043 28.6392 21.9067 27.5942 21.9067C27.5918 20.895 27.606 19.8833 27.5728 18.874C27.1816 18.9482 26.7905 19.0273 26.4019 19.1089L26.4014 16.7905Z" fill="#D24625" fill-opacity="1.000000" fill-rule="nonzero"/>
        <path d="M28.0732 18.3882C29.731 18.4624 31.124 19.8228 31.2124 21.4346C30.165 21.4463 29.1182 21.4419 28.0708 21.4419C28.0708 20.4233 28.0684 19.4048 28.0732 18.3882Z" fill="#FFFFFF" fill-opacity="1.000000" fill-rule="nonzero"/>
        <path d="M17.8291 20.144C19.1245 20.2046 20.6938 19.644 21.7671 20.5903C22.7954 21.8071 22.5234 24.0439 20.999 24.772C20.4575 25.0415 19.8374 25.0049 19.2485 24.9858C19.2456 25.8955 19.2437 26.8047 19.2456 27.7139C18.7729 27.6738 18.2998 27.6353 17.8267 27.5977C17.8052 25.1138 17.8008 22.6279 17.8291 20.144Z" fill="#D24625" fill-opacity="1.000000" fill-rule="nonzero"/>
        <path d="M19.2456 21.4023C19.7158 21.3813 20.2974 21.2979 20.6147 21.728C20.8867 22.1836 20.8726 22.7837 20.646 23.2534C20.374 23.7324 19.7583 23.686 19.2837 23.7417C19.2334 22.9629 19.2388 22.1836 19.2456 21.4023Z" fill="#FFFFFF" fill-opacity="1.000000" fill-rule="nonzero"/>
      </g>
    </g>
  </symbol>
<!-- FIGMA -->
  <symbol id="figma" viewBox="0 0 48 48">
    <defs>
      <clipPath id="clip37_703">
        <rect id="Frame 46" rx="24.000000" width="48.000000" height="48.000000" fill="white" fill-opacity="0"/>
      </clipPath>
    </defs>
    <rect id="Frame 46" rx="24.000000" width="48.000000" height="48.000000" fill="#000000" fill-opacity="1.000000"/>
    <g clip-path="url(#clip37_703)">
      <path d="M23.9946 24.0034C23.9946 22.166 25.4844 20.6689 27.3291 20.6689C29.1665 20.6689 30.6641 22.1587 30.6641 24.0034C30.6641 25.8408 29.1743 27.3384 27.3291 27.3384C25.4917 27.3384 23.9946 25.8408 23.9946 24.0034Z" fill="#1ABCFE" fill-opacity="1.000000" fill-rule="nonzero"/>
      <path d="M17.333 30.6655C17.333 28.8281 18.8228 27.3311 20.6675 27.3311L24.0024 27.3311L24.0024 30.6655C24.0024 32.5029 22.5127 34.0005 20.6675 34.0005C18.8228 34.0005 17.333 32.5107 17.333 30.6655Z" fill="#0ACF83" fill-opacity="1.000000" fill-rule="nonzero"/>
      <path d="M23.9946 14.0073L23.9946 20.6694L27.3291 20.6694C29.1665 20.6694 30.6641 19.1797 30.6641 17.3345C30.6641 15.4971 29.1743 14 27.3291 14L23.9946 14L23.9946 14.0073Z" fill="#FF7262" fill-opacity="1.000000" fill-rule="nonzero"/>
      <path d="M17.333 17.3418C17.333 19.1792 18.8228 20.6768 20.6675 20.6768L24.0024 20.6768L24.0024 14.0073L20.6675 14.0073C18.8228 14.0073 17.333 15.4971 17.333 17.3418Z" fill="#F24E1E" fill-opacity="1.000000" fill-rule="nonzero"/>
      <path d="M17.333 24.0034C17.333 25.8408 18.8228 27.3384 20.6675 27.3384L24.0024 27.3384L24.0024 20.6689L20.6675 20.6689C18.8228 20.6689 17.333 22.166 17.333 24.0034Z" fill="#A259FF" fill-opacity="1.000000" fill-rule="nonzero"/>
    </g>
  </symbol>
  <!-- PHOTOSHOP -->
  <symbol id="photoshop" viewBox="0 0 48 48">
    <defs>
      <clipPath id="clip37_711">
        <rect id="adobe-photoshop-2 1" width="21.000000" height="20.000000" transform="translate(13.000000 14.000000)" fill="white" fill-opacity="0"/>
      </clipPath>
      <clipPath id="clip37_710">
        <rect id="Frame 47" rx="24.000000" width="48.000000" height="48.000000" fill="white" fill-opacity="0"/>
      </clipPath>
    </defs>
    <rect id="Frame 47" rx="24.000000" width="48.000000" height="48.000000" fill="#001E36" fill-opacity="1.000000"/>
    <g clip-path="url(#clip37_710)">
      <rect id="adobe-photoshop-2 1" width="21.000000" height="20.000000" transform="translate(13.000000 14.000000)" fill="#FFFFFF" fill-opacity="0"/>
      <g clip-path="url(#clip37_711)">
        <path d="M16.7188 14.002L30.2812 14.002C32.3374 14.002 34 15.6255 34 17.6338L34 30.3662C34 32.374 32.3374 33.998 30.2812 33.998L16.7188 33.998C14.6626 33.998 13 32.374 13 30.3662L13 17.6338C13 15.6255 14.6626 14.002 16.7188 14.002Z" fill="#31A8FF" fill-opacity="1.000000" fill-rule="nonzero"/>
        <path d="M17.7251 28.0249L17.7251 19.2319C17.7251 19.1719 17.7515 19.1377 17.8125 19.1377C17.9614 19.1377 18.1016 19.1377 18.3027 19.1294C18.5127 19.1206 18.7314 19.1206 18.9678 19.1123C19.2036 19.1035 19.4575 19.1035 19.729 19.0952C20 19.0864 20.2627 19.0864 20.5249 19.0864C21.2427 19.0864 21.8374 19.1719 22.3276 19.3516C22.7651 19.4966 23.1675 19.7358 23.5 20.0522C23.7803 20.3257 23.999 20.6587 24.1389 21.0264C24.27 21.3853 24.3401 21.7524 24.3401 22.1372C24.3401 22.8721 24.165 23.4785 23.8149 23.957C23.4653 24.4355 22.9751 24.7944 22.4062 24.9995C21.8115 25.2134 21.1553 25.29 20.4375 25.29C20.2275 25.29 20.0874 25.29 20 25.2817C19.9126 25.2729 19.79 25.2729 19.624 25.2729L19.624 28.0161C19.6328 28.0762 19.5889 28.1274 19.5278 28.1357L17.8301 28.1357C17.7603 28.1357 17.7251 28.1016 17.7251 28.0249ZM19.6328 20.7871L19.6328 23.6582C19.7549 23.6665 19.8687 23.6753 19.9736 23.6753L20.4375 23.6753C20.7788 23.6753 21.1201 23.624 21.4438 23.5215C21.7236 23.4443 21.9688 23.2822 22.1611 23.0684C22.3452 22.855 22.4326 22.5645 22.4326 22.1885C22.4414 21.9233 22.3716 21.6587 22.2314 21.4277C22.0825 21.2056 21.8726 21.0347 21.6187 20.9409C21.2949 20.8125 20.9453 20.7612 20.5864 20.77C20.3589 20.77 20.1577 20.77 19.9912 20.7783C19.8164 20.77 19.6938 20.7783 19.6328 20.7871ZM29.8 23.1367C29.5376 23 29.2576 22.9062 28.9602 22.8462C28.6362 22.7778 28.3125 22.7354 27.98 22.7354C27.8052 22.7266 27.6213 22.7524 27.4551 22.7949C27.3413 22.8208 27.2451 22.8804 27.1838 22.9658C27.1401 23.0342 27.1138 23.1196 27.1138 23.1968C27.1138 23.2734 27.1489 23.3506 27.2014 23.4189C27.28 23.5127 27.385 23.5898 27.4988 23.6494C27.7002 23.752 27.9102 23.8462 28.1201 23.9316C28.5925 24.0854 29.0476 24.2988 29.4675 24.5552C29.7563 24.7349 29.9927 24.9741 30.1589 25.2646C30.2988 25.5381 30.3689 25.8374 30.3601 26.145C30.3689 26.5464 30.2463 26.9482 30.0188 27.2812C29.7739 27.623 29.4326 27.8882 29.0388 28.042C28.6101 28.2212 28.0852 28.3154 27.4551 28.3154C27.0525 28.3154 26.6589 28.2812 26.2651 28.2041C25.9587 28.1528 25.6526 28.0591 25.3726 27.9307C25.3113 27.8965 25.2676 27.8369 25.2764 27.7686L25.2764 26.2817C25.2764 26.2559 25.2852 26.2217 25.3113 26.2046C25.3376 26.1875 25.3638 26.1963 25.3901 26.2134C25.7314 26.4097 26.0901 26.5464 26.4751 26.6318C26.8076 26.7173 27.1577 26.7603 27.5076 26.7603C27.8401 26.7603 28.0764 26.7173 28.2339 26.6406C28.3738 26.5806 28.4702 26.4355 28.4702 26.2817C28.4702 26.1621 28.4001 26.0508 28.26 25.9399C28.1201 25.8286 27.8313 25.7007 27.4026 25.5381C26.9563 25.3843 26.5452 25.1792 26.1602 24.9229C25.8889 24.7349 25.6614 24.4868 25.4951 24.1963C25.355 23.9229 25.2852 23.624 25.2939 23.3247C25.2939 22.9575 25.3989 22.6069 25.5913 22.291C25.8101 21.9492 26.1338 21.6758 26.51 21.5049C26.9214 21.2998 27.4375 21.2056 28.0588 21.2056C28.4175 21.2056 28.7852 21.2314 29.1438 21.2827C29.4062 21.3169 29.6602 21.3853 29.8962 21.479C29.9314 21.4878 29.9663 21.522 29.9839 21.5562C29.9927 21.5903 30.0015 21.6245 30.0015 21.6587L30.0015 23.0513C30.0015 23.0854 29.9839 23.1196 29.9575 23.1367C29.8789 23.1538 29.8352 23.1538 29.8 23.1367Z" fill="#001E36" fill-opacity="1.000000" fill-rule="nonzero"/>
      </g>
    </g>
  </symbol>
<!-- XCODE -->
  <symbol id="xcode" viewBox="0 0 48 48">
    
  </symbol>
  <!-- VS CODE -->
  <symbol id="vscode" viewBox="0 0 48 48">
    <defs>
      <clipPath id="clip37_721">
        <rect id="visual-studio-code-1 1" width="20.000000" height="19.639999" transform="translate(14.000000 14.000000)" fill="white" fill-opacity="0"/>
      </clipPath>
      <clipPath id="clip37_720">
        <rect id="Frame 47" rx="24.000000" width="48.000000" height="48.000000" fill="white" fill-opacity="0"/>
      </clipPath>
    </defs>
    <rect id="Frame 47" rx="24.000000" width="48.000000" height="48.000000" fill="#3C99D4" fill-opacity="1.000000"/>
    <g clip-path="url(#clip37_720)">
      <rect id="visual-studio-code-1 1" width="20.000000" height="19.639999" transform="translate(14.000000 14.000000)" fill="#FFFFFF" fill-opacity="0"/>
      <g clip-path="url(#clip37_721)">
        <g opacity="0.400000">
          <path id="Vector" d="M14.5718 21.0205C14.5718 21.0205 14.0981 20.6792 14.6665 20.2236L15.9902 19.04C15.9902 19.04 16.3687 18.6416 16.769 18.9888L28.9839 28.2368L28.9839 32.6714C28.9839 32.6714 28.978 33.3677 28.0845 33.2905L14.5718 21.0205Z" fill="#FFFFFF" fill-opacity="1.000000" fill-rule="nonzero"/>
        </g>
        <g opacity="0.700000">
          <path id="Vector" d="M17.7197 23.8794L14.5713 26.7417C14.5713 26.7417 14.248 26.9824 14.5713 27.4126L16.0332 28.7422C16.0332 28.7422 16.3804 29.1147 16.8936 28.6909L20.231 26.1597L17.7197 23.8794Z" fill="#FFFFFF" fill-opacity="1.000000" fill-rule="nonzero"/>
        </g>
        <g opacity="0.400000">
          <path id="Vector" d="M23.2476 23.9028L29.0215 19.4941L28.9844 15.083C28.9844 15.083 28.7378 14.1206 27.915 14.6216L20.2314 21.6147L23.2476 23.9028Z" fill="#FFFFFF" fill-opacity="1.000000" fill-rule="nonzero"/>
        </g>
        <path id="Vector" d="M28.0845 33.2969C28.4199 33.6401 28.8267 33.5278 28.8267 33.5278L33.3262 31.3105C33.9023 30.918 33.8213 30.4307 33.8213 30.4307L33.8213 17.1899C33.8213 16.6079 33.2256 16.4067 33.2256 16.4067L29.3257 14.5269C28.4731 14 27.915 14.6216 27.915 14.6216C27.915 14.6216 28.6333 14.1045 28.9844 15.083L28.9844 32.5908C28.9844 32.7109 28.9585 32.8291 28.9072 32.936C28.8047 33.1431 28.582 33.3364 28.0474 33.2554L28.0845 33.2969Z" fill="#FFFFFF" fill-opacity="1.000000" fill-rule="nonzero"/>
      </g>
    </g>
  </symbol>

  <symbol id="jira" viewBox="0 0 48 48">
    <defs>
      <clipPath id="clip37_730">
        <rect id="jira-3 1" width="18.888000" height="20.000000" transform="translate(15.000000 14.000000)" fill="white" fill-opacity="0"/>
      </clipPath>
      <clipPath id="clip37_729">
        <rect id="Frame 47" rx="24.000000" width="48.000000" height="48.000000" fill="white" fill-opacity="0"/>
      </clipPath>
      <linearGradient id="paint_linear_37_732_0" x1="23.805674" y1="18.121487" x2="19.725306" y2="22.200974" gradientUnits="userSpaceOnUse">
        <stop offset="0.180000" stop-color="#0052CC"/>
        <stop offset="1.000000" stop-color="#2684FF"/>
      </linearGradient>
      <linearGradient id="paint_linear_37_733_0" x1="24.886675" y1="29.843212" x2="28.959105" y2="25.771671" gradientUnits="userSpaceOnUse">
        <stop offset="0.180000" stop-color="#0052CC"/>
        <stop offset="1.000000" stop-color="#2684FF"/>
      </linearGradient>
    </defs>
    <rect id="Frame 47" rx="24.000000" width="48.000000" height="48.000000" fill="#000000" fill-opacity="1.000000"/>
    <g clip-path="url(#clip37_729)">
      <rect id="jira-3 1" width="18.888000" height="20.000000" transform="translate(15.000000 14.000000)" fill="#FFFFFF" fill-opacity="0"/>
      <g clip-path="url(#clip37_730)">
        <path id="Vector" d="M33.6567 23.4473L25.1528 14.9434L24.3286 14.1191L17.9272 20.5205L15 23.4473C14.8535 23.5942 14.7715 23.793 14.7715 24.0005C14.7715 24.2075 14.8535 24.4062 15 24.5532L20.8481 30.4019L24.3286 33.8813L30.7295 27.48L30.8291 27.3809L33.6567 24.5576C33.73 24.4849 33.7881 24.3984 33.8276 24.3032C33.8672 24.208 33.8877 24.1055 33.8877 24.0024C33.8877 23.8994 33.8672 23.7969 33.8276 23.7017C33.7881 23.6064 33.73 23.52 33.6567 23.4473ZM24.3286 26.9224L21.4067 24.0005L24.3286 21.0781L27.2495 24.0005L24.3286 26.9224Z" fill="#2684FF" fill-opacity="1.000000" fill-rule="nonzero"/>
        <path id="Vector" d="M24.3286 21.0776C23.4097 20.1592 22.8916 18.9141 22.8877 17.6147C22.8838 16.3149 23.3945 15.0669 24.3076 14.1426L17.9141 20.5337L21.3936 24.0132L24.3286 21.0776Z" fill="url(#paint_linear_37_732_0)" fill-opacity="1.000000" fill-rule="nonzero"/>
        <path id="Vector" d="M27.2583 23.9922L24.3291 26.9219C25.2515 27.8447 25.7695 29.0962 25.7695 30.4009C25.7695 31.7056 25.2515 32.9565 24.3291 33.8794L30.7402 27.4717L27.2583 23.9922Z" fill="url(#paint_linear_37_733_0)" fill-opacity="1.000000" fill-rule="nonzero"/>
      </g>
    </g>
  </symbol>

  <symbol id="slack" viewBox="0 0 48 48">
    <defs>
      <clipPath id="clip37_735">
        <rect id="slack-new-logo 1" width="20.000000" height="20.040039" transform="translate(14.000000 14.000000)" fill="white" fill-opacity="0"/>
      </clipPath>
      <clipPath id="clip37_734">
        <rect id="Frame 49" rx="24.000000" width="48.000000" height="48.000000" fill="white" fill-opacity="0"/>
      </clipPath>
    </defs>
    <rect id="Frame 49" rx="24.000000" width="48.000000" height="48.000000" fill="#FAF8FE" fill-opacity="1.000000"/>
    <g clip-path="url(#clip37_734)">
      <rect id="slack-new-logo 1" width="20.000000" height="20.040039" transform="translate(14.000000 14.000000)" fill="#FFFFFF" fill-opacity="0"/>
      <g clip-path="url(#clip37_735)">
        <path id="Vector" d="M21.333 14C20.2275 14.001 19.3325 14.8979 19.3335 16.0034C19.3325 17.1094 20.228 18.0063 21.3335 18.0073L23.334 18.0073L23.334 16.0044C23.335 14.8989 22.4395 14.0015 21.333 14ZM21.333 19.3442L16.0005 19.3442C14.8945 19.3447 13.999 20.2422 14 21.3477C13.9985 22.4531 14.894 23.3506 15.9995 23.3521L21.333 23.3521C22.4385 23.3511 23.334 22.4541 23.333 21.3486C23.334 20.2422 22.4385 19.3447 21.333 19.3442Z" fill="#36C5F0" fill-opacity="1.000000" fill-rule="evenodd"/>
        <path id="Vector" d="M34 21.3477C34.0007 20.2422 33.1052 19.3447 31.9998 19.3442C30.894 19.3447 29.9985 20.2422 29.9993 21.3477L29.9993 23.3521L31.9998 23.3521C33.1052 23.3511 34.0007 22.4541 34 21.3477ZM28.6665 21.3477L28.6665 16.0034C28.6675 14.8989 27.7727 14.0015 26.667 14C25.5615 14.001 24.666 14.8979 24.6667 16.0034L24.6667 21.3477C24.665 22.4531 25.5608 23.3506 26.6663 23.3521C27.7717 23.3511 28.6675 22.4541 28.6665 21.3477Z" fill="#2EB67D" fill-opacity="1.000000" fill-rule="evenodd"/>
        <path id="Vector" d="M26.6663 34.04C27.772 34.0391 28.6675 33.1416 28.6667 32.0361C28.6675 30.9307 27.772 30.0337 26.6663 30.0327L24.666 30.0327L24.666 32.0361C24.6653 33.1411 25.5608 34.0381 26.6663 34.04ZM26.6663 28.6948L31.9998 28.6948C33.1052 28.6943 34.001 27.7969 34 26.6914C34.0017 25.5859 33.1062 24.6885 32.0005 24.687L26.6672 24.687C25.5615 24.688 24.666 25.585 24.6667 26.6904C24.666 27.7969 25.5608 28.6943 26.6663 28.6948Z" fill="#ECB22E" fill-opacity="1.000000" fill-rule="evenodd"/>
        <path id="Vector" d="M14 26.6914C13.999 27.7974 14.8945 28.6943 16.0005 28.6953C17.106 28.6943 18.0015 27.7974 18.0005 26.6914L18.0005 24.688L16.0005 24.688C14.8945 24.689 13.999 25.5859 14 26.6914ZM19.3335 26.6914L19.3335 32.0356C19.3315 33.1411 20.2275 34.0386 21.333 34.04C22.4385 34.0391 23.334 33.1421 23.333 32.0366L23.333 26.6934C23.335 25.5874 22.4395 24.6904 21.3335 24.689C20.2275 24.689 19.3325 25.5859 19.3335 26.6914Z" fill="#E01E5A" fill-opacity="1.000000" fill-rule="evenodd"/>
      </g>
    </g>
  </symbol>

  <symbol id="trello" viewBox="0 0 48 48">
    <defs>
      <clipPath id="clip37_743">
        <rect id="trello 1" width="20.000000" height="20.000000" transform="translate(14.000000 14.000000)" fill="white" fill-opacity="0"/>
      </clipPath>
      <clipPath id="clip37_741">
        <rect id="Frame 48" rx="24.000000" width="48.000000" height="48.000000" fill="white" fill-opacity="0"/>
      </clipPath>
      <linearGradient id="paint_linear_37_741_0" x1="2400.000000" y1="0.000000" x2="2400.000000" y2="4800.000000" gradientUnits="userSpaceOnUse">
        <stop stop-color="#0091E6"/>
        <stop offset="1.000000" stop-color="#0079BF"/>
      </linearGradient>
      <linearGradient id="paint_linear_37_742_0" x1="1014.000000" y1="14.000000" x2="1014.000000" y2="2014.000000" gradientUnits="userSpaceOnUse">
        <stop stop-color="#0091E6"/>
        <stop offset="1.000000" stop-color="#0079BF"/>
      </linearGradient>
    </defs>
    <rect id="Frame 48" rx="24.000000" width="48.000000" height="48.000000" fill="#0091E6" fill-opacity="1.000000"/>
    <rect id="Frame 48" rx="24.000000" width="48.000000" height="48.000000" fill="url(#paint_linear_37_741_0)" fill-opacity="1.000000"/>
    <g clip-path="url(#clip37_741)">
      <path id="Subtract" d="M15.9531 14L32.0469 14C33.1255 14 34 14.8745 34 15.9531L34 32.0469C34 33.1255 33.1255 34 32.0469 34L15.9531 34C14.8745 34 14 33.1255 14 32.0469L14 15.9531C14 14.8745 14.8745 14 15.9531 14ZM21.7625 16.6001L17.5376 16.6001C17.0198 16.6001 16.6001 17.0195 16.6001 17.5376L16.6001 29.4126C16.6001 29.9302 17.0198 30.3501 17.5376 30.3501L21.7625 30.3501C22.2803 30.3501 22.7 29.9302 22.7 29.4126L22.7 17.5376C22.7 17.0195 22.2803 16.6001 21.7625 16.6001ZM26.2375 16.6001L30.4624 16.6001C30.9802 16.6001 31.3999 17.0195 31.3999 17.5376L31.3999 24.4126C31.3999 24.9302 30.9802 25.3501 30.4624 25.3501L26.2375 25.3501C25.7197 25.3501 25.3 24.9302 25.3 24.4126L25.3 17.5376C25.3 17.0195 25.7197 16.6001 26.2375 16.6001Z" clip-rule="evenodd" fill="url(#paint_linear_37_742_0)" fill-opacity="1.000000" fill-rule="evenodd"/>
      <path id="Subtract" d="M15.9531 14L32.0469 14C33.1255 14 34 14.8745 34 15.9531L34 32.0469C34 33.1255 33.1255 34 32.0469 34L15.9531 34C14.8745 34 14 33.1255 14 32.0469L14 15.9531C14 14.8745 14.8745 14 15.9531 14ZM21.7625 16.6001L17.5376 16.6001C17.0198 16.6001 16.6001 17.0195 16.6001 17.5376L16.6001 29.4126C16.6001 29.9302 17.0198 30.3501 17.5376 30.3501L21.7625 30.3501C22.2803 30.3501 22.7 29.9302 22.7 29.4126L22.7 17.5376C22.7 17.0195 22.2803 16.6001 21.7625 16.6001ZM26.2375 16.6001L30.4624 16.6001C30.9802 16.6001 31.3999 17.0195 31.3999 17.5376L31.3999 24.4126C31.3999 24.9302 30.9802 25.3501 30.4624 25.3501L26.2375 25.3501C25.7197 25.3501 25.3 24.9302 25.3 24.4126L25.3 17.5376C25.3 17.0195 25.7197 16.6001 26.2375 16.6001Z" clip-rule="evenodd" fill="#FFFFFF" fill-opacity="1.000000" fill-rule="evenodd"/>
    </g>
  </symbol>

  <symbol id="managment4" viewBox="0 0 48 48">
    <defs>
      <clipPath id="clip37_747">
        <rect id="Frame 52" rx="24.000000" width="48.000000" height="48.000000" fill="white" fill-opacity="0"/>
      </clipPath>
    </defs>
    <rect id="Frame 52" rx="24.000000" width="48.000000" height="48.000000" fill="#FAF8FE" fill-opacity="1.000000"/>
    <g clip-path="url(#clip37_747)">
      <path id="Vector" d="M36.7856 20L10.2144 20C10.0803 20 10 19.873 10 19.7461L10 14.2539C10 14.0952 10.1072 14 10.2144 14L36.7856 14C36.8928 14 37 14.127 37 14.2539L37 19.7461C37 19.9048 36.8928 20 36.7856 20Z" fill="#62BDD5" fill-opacity="1.000000" fill-rule="nonzero"/>
      <path id="Vector" d="M36.7883 27L17.2117 27C17.1057 27 17 26.8745 17 26.7485L17 21.2515C17 21.0942 17.1057 21 17.2117 21L36.7883 21C36.8943 21 37 21.1255 37 21.2515L37 26.7485C37 26.8745 36.8943 27 36.7883 27Z" fill="#A2BF55" fill-opacity="1.000000" fill-rule="nonzero"/>
      <path id="Vector" d="M36.7783 33L23.2217 33C23.1108 33 23 32.8931 23 32.7861L23 28.2139C23 28.1069 23.0833 28 23.2217 28L36.7783 28C36.8892 28 37 28.1069 37 28.2139L37 32.7861C37 32.9199 36.9167 33 36.7783 33Z" fill="#B86FD7" fill-opacity="1.000000" fill-rule="nonzero"/>
    </g>
  </symbol>
  
  <symbol id="managment5" viewBox="0 0 48 48">
    <defs>
      <clipPath id="clip37_751">
        <rect id="Frame 51" rx="24.000000" width="48.000000" height="48.000000" fill="white" fill-opacity="0"/>
      </clipPath>
    </defs>
    <rect id="Frame 51" rx="24.000000" width="48.000000" height="48.000000" fill="#FFD02F" fill-opacity="1.000000"/>
    <g clip-path="url(#clip37_751)">
      <path id="Vector" d="M28.635 14L25.708 14L28.146 18.2842L22.781 14L19.854 14L22.5364 19.2388L16.927 14L14 14L16.927 20.6665L14 34L16.927 34L22.5364 19.7119L19.854 34L22.781 34L28.146 18.7651L25.708 34L28.635 34L34 17.3296L28.635 14Z" fill="#050038" fill-opacity="1.000000" fill-rule="nonzero"/>
    </g>
  </symbol>
  <symbol id="worksection" viewBox="0 0 48 48">
    <defs>
      <clipPath id="clip37_753">
        <rect id="Frame 50" rx="24.000000" width="48.000000" height="48.000000" fill="white" fill-opacity="0"/>
      </clipPath>
    </defs>
    <rect id="Frame 50" rx="24.000000" width="48.000000" height="48.000000" fill="#77BB00" fill-opacity="1.000000"/>
    <g clip-path="url(#clip37_753)">
      <circle id="Ellipse 1" cx="24.856934" cy="24.000000" r="10.285714" fill="#77BB00" fill-opacity="1.000000"/>
      <path id="Vector" d="M24 12C17.3733 12 12 17.3721 12 24C12 30.6279 17.3733 36 24 36C30.6267 36 36 30.6279 36 24C36 17.3721 30.6267 12 24 12ZM31.22 22.3892C30.6079 22.9321 29.2346 23.0039 29.0947 23.1157C28.9346 23.2427 28.8879 23.48 28.8879 24.1348L28.8879 27.7466C28.884 29.5269 27.4346 30.9746 25.6587 30.9761L25.4814 30.9761C24.6973 30.9746 23.9253 30.6772 23.3401 30.1572C22.752 30.6787 21.9788 30.9746 21.1973 30.9761L21.02 30.9761C19.2427 30.9746 17.7935 29.5269 17.7908 27.7466L17.7908 22.1895C17.7908 21.5894 18.28 21.1016 18.8801 21.1016C19.4788 21.1016 19.9653 21.5908 19.9653 22.1895L19.9653 27.7466C19.9668 28.3174 20.4507 28.8013 21.02 28.8013L21.1987 28.8013C21.7693 28.7998 22.252 28.3174 22.2534 27.7456L22.2534 25.3945C22.2534 24.7949 22.7412 24.3066 23.3413 24.3066C23.9414 24.3066 24.428 24.7959 24.428 25.3945L24.428 27.7466C24.4294 28.3174 24.9121 28.8013 25.4827 28.8013L25.6599 28.8013C26.228 28.7998 26.7119 28.3174 26.7134 27.7441L26.7134 21.6362C26.7134 20.2549 27.1919 19.0732 28.0427 18.2881C29.2214 17.1987 31.748 17.2319 32.2319 17.8491C32.7307 18.4883 32.4041 21.3374 31.22 22.3892Z" fill="#FFFFFF" fill-opacity="1.000000" fill-rule="nonzero"/>
    </g>
  </symbol>

  <symbol id="google-calendar" viewBox="0 0 48 48">
    <defs>
      <clipPath id="clip37_758">
        <rect id="google-calendar-icon-2020- 1" width="20.000000" height="20.000000" transform="translate(14.000000 14.000000)" fill="white" fill-opacity="0"/>
      </clipPath>
      <clipPath id="clip37_757">
        <rect id="Frame 46" rx="24.000000" width="48.000000" height="48.000000" fill="white" fill-opacity="0"/>
      </clipPath>
    </defs>
    <rect id="Frame 46" rx="24.000000" width="48.000000" height="48.000000" fill="#000000" fill-opacity="1.000000"/>
    <g clip-path="url(#clip37_757)">
      <rect id="google-calendar-icon-2020- 1" width="20.000000" height="20.000000" transform="translate(14.000000 14.000000)" fill="#FFFFFF" fill-opacity="0"/>
      <g clip-path="url(#clip37_758)">
        <path id="Vector" d="M29.2632 18.7368L24.5264 18.2104L18.7368 18.7368L18.2104 24L18.7368 29.2632L24 29.9209L29.2632 29.2632L29.7896 23.8687L29.2632 18.7368Z" fill="#FFFFFF" fill-opacity="1.000000" fill-rule="nonzero"/>
        <path id="Vector" d="M20.896 26.9028C20.5027 26.6372 20.2302 26.249 20.0815 25.7358L20.9946 25.3594C21.0776 25.6753 21.2224 25.9199 21.429 26.0938C21.6343 26.2671 21.8843 26.353 22.1763 26.353C22.4751 26.353 22.7317 26.2622 22.946 26.0806C23.1604 25.8989 23.2686 25.667 23.2686 25.3872C23.2686 25.1001 23.1553 24.8657 22.929 24.6846C22.7026 24.5029 22.4185 24.4121 22.0789 24.4121L21.5513 24.4121L21.5513 23.5083L22.0249 23.5083C22.3171 23.5083 22.5632 23.4292 22.7632 23.2715C22.9631 23.1133 23.0632 22.8975 23.0632 22.6226C23.0632 22.3779 22.9736 22.1831 22.7947 22.0371C22.6157 21.8911 22.3894 21.8174 22.1145 21.8174C21.8459 21.8174 21.6328 21.8887 21.4749 22.0317C21.3171 22.1753 21.2026 22.3516 21.1301 22.5596L20.2263 22.1831C20.3459 21.8438 20.5659 21.5439 20.8882 21.2847C21.2104 21.0254 21.6223 20.895 22.1223 20.895C22.4919 20.895 22.825 20.9663 23.1196 21.1094C23.4146 21.2529 23.646 21.4517 23.8132 21.7041C23.9802 21.958 24.0632 22.2422 24.0632 22.5581C24.0632 22.8804 23.9856 23.1528 23.8303 23.3765C23.675 23.6001 23.4841 23.771 23.2578 23.8911L23.2578 23.9448C23.55 24.0654 23.804 24.2632 23.9919 24.5171C24.1829 24.7739 24.2788 25.0806 24.2788 25.4385C24.2788 25.7964 24.188 26.1162 24.0063 26.3965C23.825 26.6768 23.5735 26.8975 23.2551 27.0581C22.9355 27.2188 22.5762 27.3003 22.1775 27.3003C21.7158 27.3018 21.2896 27.1685 20.896 26.9028ZM26.5 22.3711L25.5024 23.0962L25.0012 22.3359L26.8 21.0386L27.4895 21.0386L27.4895 27.1582L26.5 27.1582L26.5 22.3711Z" fill="#1A73E8" fill-opacity="1.000000" fill-rule="nonzero"/>
        <path id="Vector" d="M29.2629 34L33.9998 29.2632L31.6313 28.2104L29.2629 29.2632L28.2104 31.6313L29.2629 34Z" fill="#EA4335" fill-opacity="1.000000" fill-rule="nonzero"/>
        <path id="Vector" d="M17.6841 31.6313L18.7366 34L29.2629 34L29.2629 29.2632L18.7366 29.2632L17.6841 31.6313Z" fill="#34A853" fill-opacity="1.000000" fill-rule="nonzero"/>
        <path id="Vector" d="M15.5789 14C14.7065 14 14 14.7065 14 15.5791L14 29.2632L16.3684 30.3159L18.7368 29.2632L18.7368 18.7368L29.2632 18.7368L30.3157 16.3682L29.2632 14L15.5789 14Z" fill="#4285F4" fill-opacity="1.000000" fill-rule="nonzero"/>
        <path id="Vector" d="M14 29.2632L14 32.4209C14 33.2935 14.7065 34 15.5789 34L18.7368 34L18.7368 29.2632L14 29.2632Z" fill="#188038" fill-opacity="1.000000" fill-rule="nonzero"/>
        <path id="Vector" d="M29.2632 18.7368L29.2632 29.2632L34 29.2632L34 18.7368L31.6316 17.6841L29.2632 18.7368Z" fill="#FBBC04" fill-opacity="1.000000" fill-rule="nonzero"/>
        <path id="Vector" d="M34 18.7368L34 15.5791C34 14.7065 33.2935 14 32.4211 14L29.2632 14L29.2632 18.7368L34 18.7368Z" fill="#1967D2" fill-opacity="1.000000" fill-rule="nonzero"/>
      </g>
    </g>
  </symbol>

  <symbol id="managment8" viewBox="0 0 48 48">
    <defs>
      <clipPath id="clip37_767">
        <rect id="Frame 53" rx="24.000000" width="48.000000" height="48.000000" fill="white" fill-opacity="0"/>
      </clipPath>
    </defs>
    <rect id="Frame 53" rx="24.000000" width="48.000000" height="48.000000" fill="#0C1258" fill-opacity="1.000000"/>
    <g clip-path="url(#clip37_767)">
      <mask id="mask37_769" mask-type="alpha" maskUnits="userSpaceOnUse" x="14.000000" y="14.000000" width="20.000000" height="20.000000">
        <path id="Vector" d="M14.2576 18.6201C14.4395 16.2832 16.283 14.4395 18.6204 14.2573C20.3667 14.1216 22.3816 14 24 14C25.6184 14 27.6333 14.1216 29.3796 14.2573C31.717 14.4395 33.5605 16.2832 33.7424 18.6201C33.8784 20.3667 34 22.3813 34 24C34 25.6187 33.8784 27.6333 33.7424 29.3799C33.5605 31.7168 31.717 33.5605 29.3796 33.7427C27.6333 33.8784 25.6184 34 24 34C22.3816 34 20.3667 33.8784 18.6204 33.7427C16.283 33.5605 14.4395 31.7168 14.2576 29.3799C14.1216 27.6333 14 25.6187 14 24C14 22.3813 14.1216 20.3667 14.2576 18.6201Z" fill="#1287FB" fill-opacity="1.000000" fill-rule="nonzero"/>
      </mask>
      <g mask="url(#mask37_769)">
        <path id="Vector" d="M18.6204 14.2573C16.283 14.4395 14.4395 16.2832 14.2576 18.6201C14.1216 20.3667 14 22.3813 14 24C14 25.6187 14.1216 27.6333 14.2576 29.3799C14.4395 31.7168 16.283 33.5605 18.6204 33.7427C20.3667 33.8784 22.3816 34 24 34C25.6184 34 27.6333 33.8784 29.3796 33.7427C31.717 33.5605 33.5605 31.7168 33.7424 29.3799C33.8784 27.6333 34 25.6187 34 24C34 22.3813 33.8784 20.3667 33.7424 18.6201C33.5605 16.2832 31.717 14.4395 29.3796 14.2573C27.6333 14.1216 25.6184 14 24 14C22.3816 14 20.3667 14.1216 18.6204 14.2573ZM30.7188 23.8438C30.7188 23.4126 30.3691 23.0625 29.9375 23.0625L21.8125 23.0625C21.3811 23.0625 21.0312 23.4126 21.0312 23.8438C21.0312 24.2754 21.3811 24.625 21.8125 24.625L29.9375 24.625C30.3691 24.625 30.7188 24.2754 30.7188 23.8438ZM25.5625 19C25.9941 19 26.3438 19.3496 26.3438 19.7812C26.3438 20.2129 25.9941 20.5625 25.5625 20.5625L18.0625 20.5625C17.6311 20.5625 17.2812 20.2129 17.2812 19.7812C17.2812 19.3496 17.6311 19 18.0625 19L25.5625 19ZM30.7188 27.9062C30.7188 27.4746 30.3691 27.125 29.9375 27.125L21.8125 27.125C21.3811 27.125 21.0312 27.4746 21.0312 27.9062C21.0312 28.3379 21.3811 28.6875 21.8125 28.6875L29.9375 28.6875C30.3691 28.6875 30.7188 28.3379 30.7188 27.9062Z" fill="#FFFFFF" fill-opacity="1.000000" fill-rule="evenodd"/>
        <path id="Vector" d="M26.3438 23.8433C26.3438 23.4116 25.9939 23.062 25.5625 23.062L29.9375 23.062C30.3689 23.062 30.7188 23.4116 30.7188 23.8433C30.7188 24.2749 30.3689 24.6245 29.9375 24.6245L25.5625 24.6245C25.9941 24.6245 26.3438 24.2749 26.3438 23.8433Z" fill="#FFFFFF" fill-opacity="0.700000" fill-rule="evenodd"/>
        <path id="Vector" d="M26.3438 27.9058C26.3438 27.4741 25.9939 27.1245 25.5625 27.1245L29.9375 27.1245C30.3689 27.1245 30.7188 27.4741 30.7188 27.9058C30.7188 28.3374 30.3689 28.687 29.9375 28.687L25.5625 28.687C25.9941 28.687 26.3438 28.3374 26.3438 27.9058Z" fill="#FFFFFF" fill-opacity="0.700000" fill-rule="evenodd"/>
      </g>
    </g>
  </symbol>

  <!-- Arrow-slider -->
  <symbol id="arrow-slider" viewBox="0 0 10.6667 10.6665">
    <path id="Vector" d="M2.55005 4.6665L10.6667 4.6665L10.6667 6L2.55005 6L6.28345 9.7334L5.3335 10.6665L0 5.33301L5.3335 0L6.28345 0.933105L2.55005 4.6665Z" fill="inherit" fill-opacity="1.000000" fill-rule="nonzero"/>
  </symbol>


  <symbol id="sociabiliti" viewBox="0 0 24 22">
    <path id="Vector" d="M8.75 22C7.9834 22 7.2959 21.7998 6.6875 21.3999C6.0791 21 5.6084 20.4502 5.2749 19.75C5.0083 20.1001 4.6709 20.3706 4.2627 20.5625C3.854 20.7544 3.43311 20.8501 3 20.8501C2.1499 20.8501 1.4375 20.5581 0.862305 19.9751C0.287598 19.3916 0 18.6831 0 17.8501C0 17.1333 0.233398 16.4873 0.700195 15.9126C1.1665 15.3374 1.7583 15.0083 2.4751 14.9248C2.2417 14.5918 2.0625 14.2373 1.9375 13.8623C1.8125 13.4873 1.75 13.0918 1.75 12.6748C1.75 12.0083 1.9209 11.3833 2.2627 10.7998C2.604 10.2168 3.0835 9.7417 3.7002 9.375C3.7832 9.6748 3.896 9.99561 4.0376 10.3374C4.1792 10.6792 4.3418 10.9751 4.5249 11.2251C4.2915 11.4082 4.1084 11.6294 3.9751 11.8877C3.8418 12.146 3.7749 12.4165 3.7749 12.7002C3.7749 13.6333 4.1582 14.2085 4.9248 14.4248C5.69189 14.6416 6.4165 14.8169 7.1001 14.9502L7.5752 15.75C7.3916 16.2832 7.2334 16.7373 7.1001 17.1123C6.9668 17.4873 6.8999 17.8252 6.8999 18.125C6.8999 18.625 7.0791 19.0625 7.4375 19.4375C7.7959 19.8125 8.2334 20 8.75 20C9.3833 20 9.9082 19.7168 10.3252 19.1499C10.7417 18.5835 11.0835 17.9165 11.3501 17.1499C11.6167 16.3833 11.8208 15.6084 11.9624 14.8252C12.104 14.0415 12.2168 13.4419 12.2998 13.0249L14.25 13.5498C14.1001 14.2998 13.9165 15.1582 13.7002 16.125C13.4834 17.0918 13.1792 18.0127 12.7876 18.8877C12.396 19.7627 11.8794 20.5 11.2373 21.1001C10.5957 21.7002 9.7666 22 8.75 22ZM3 18.8501C3.2832 18.8501 3.521 18.7544 3.7124 18.5625C3.9043 18.3706 4 18.1333 4 17.8501C4 17.5669 3.9043 17.3291 3.7124 17.1377C3.521 16.9458 3.2832 16.8501 3 16.8501C2.7168 16.8501 2.479 16.9458 2.2876 17.1377C2.0957 17.3291 2 17.5669 2 17.8501C2 18.1333 2.0957 18.3706 2.2876 18.5625C2.479 18.7544 2.7168 18.8501 3 18.8501ZM10.1001 14.8999C9.3335 14.2168 8.6377 13.5791 8.0127 12.9873C7.3877 12.396 6.8501 11.8208 6.3999 11.2627C5.9502 10.7041 5.604 10.146 5.3623 9.5874C5.12061 9.0293 5 8.4502 5 7.8501C5 6.7666 5.37061 5.854 6.1123 5.1123C6.854 4.37061 7.7666 4 8.8501 4C8.9165 4 8.9751 4.00439 9.0249 4.0127C9.0752 4.021 9.1333 4.0249 9.2002 4.0249C9.1333 3.8584 9.0835 3.69189 9.0498 3.5249C9.0166 3.3584 9 3.18311 9 3C9 2.1665 9.2915 1.4585 9.875 0.875C10.4585 0.291504 11.1665 0 12 0C12.8335 0 13.5415 0.291504 14.125 0.875C14.7085 1.4585 15 2.1665 15 3C15 3.18311 14.9834 3.354 14.9502 3.5127C14.9165 3.6709 14.8667 3.8335 14.7998 4L15.1499 4C16.1499 4 17 4.3208 17.7002 4.9624C18.3999 5.604 18.8169 6.3999 18.9502 7.3501C18.6499 7.2998 18.3125 7.2749 17.9375 7.2749C17.5625 7.2749 17.2168 7.2915 16.8999 7.3252C16.7832 6.94189 16.5708 6.625 16.2627 6.375C15.9541 6.125 15.5835 6 15.1499 6C14.5669 6 14.1123 6.1709 13.7876 6.5127C13.4624 6.854 13.0166 7.3501 12.4502 8L11.5249 8C10.9419 7.31689 10.4873 6.8125 10.1626 6.4873C9.8374 6.1626 9.3999 6 8.8501 6C8.31689 6 7.875 6.1748 7.5249 6.5249C7.1748 6.875 7 7.31689 7 7.8501C7 8.2334 7.1084 8.62939 7.3252 9.0376C7.5415 9.4458 7.8457 9.87939 8.2373 10.3374C8.62939 10.7959 9.104 11.2832 9.6626 11.7998C10.2207 12.3169 10.8418 12.875 11.5249 13.4751L10.1001 14.8999ZM12 4C12.2832 4 12.521 3.9043 12.7124 3.7124C12.9043 3.521 13 3.2832 13 3C13 2.7168 12.9043 2.479 12.7124 2.2876C12.521 2.0957 12.2832 2 12 2C11.7168 2 11.479 2.0957 11.2876 2.2876C11.0957 2.479 11 2.7168 11 3C11 3.2832 11.0957 3.521 11.2876 3.7124C11.479 3.9043 11.7168 4 12 4ZM15.2251 22C14.8584 22 14.4956 21.9502 14.1377 21.8501C13.7793 21.75 13.4331 21.5918 13.1001 21.375C13.2832 21.1416 13.4668 20.8667 13.6499 20.5498C13.8335 20.2334 14 19.9419 14.1499 19.6748C14.3335 19.7915 14.5166 19.875 14.7002 19.9248C14.8833 19.9751 15.0669 20 15.25 20C15.7832 20 16.229 19.8125 16.5874 19.4375C16.9458 19.0625 17.125 18.6167 17.125 18.1001C17.125 17.7832 17.0581 17.4419 16.9248 17.0752C16.7915 16.7085 16.6333 16.2583 16.4502 15.7251L16.9248 14.9248C17.625 14.7915 18.354 14.6167 19.1123 14.3999C19.8706 14.1831 20.25 13.6084 20.25 12.6748C20.25 12.0083 20.0044 11.5249 19.5127 11.2251C19.021 10.9248 18.4834 10.7749 17.8999 10.7749C17.2002 10.7749 16.3833 10.9082 15.4502 11.1748C14.5166 11.4419 13.4248 11.7832 12.1748 12.2002L11.6499 10.25C12.9502 9.8335 14.1084 9.4834 15.125 9.2002C16.1416 8.9165 17.0752 8.7749 17.9248 8.7749C19.0752 8.7749 20.0835 9.1167 20.9502 9.7998C21.8169 10.4834 22.25 11.4419 22.25 12.6748C22.25 13.0918 22.1875 13.4873 22.0625 13.8623C21.9375 14.2373 21.7583 14.5918 21.5249 14.9248C22.2417 15.0083 22.8335 15.3374 23.2998 15.9126C23.7666 16.4873 24 17.1333 24 17.8501C24 18.6831 23.7124 19.3916 23.1377 19.9751C22.5625 20.5581 21.8501 20.8501 21 20.8501C20.5669 20.8501 20.146 20.7544 19.7373 20.5625C19.3291 20.3706 18.9917 20.1001 18.7251 19.75C18.3916 20.4502 17.9209 21 17.3125 21.3999C16.7041 21.7998 16.0083 22 15.2251 22ZM21.0249 18.8501C21.3081 18.8501 21.5415 18.7544 21.7251 18.5625C21.9082 18.3706 22 18.1333 22 17.8501C22 17.5669 21.9043 17.3252 21.7124 17.125C21.521 16.9248 21.2832 16.8252 21 16.8252C20.7168 16.8252 20.479 16.9209 20.2876 17.1123C20.0957 17.3042 20 17.5415 20 17.8252C20 18.1084 20.1001 18.3501 20.2998 18.5498C20.5 18.75 20.7417 18.8501 21.0249 18.8501Z" fill="inherit" fill-opacity="1.000000" fill-rule="nonzero"/>
  </symbol>

  <symbol id="stress" viewBox="0 0 18 16">
    <path id="Vector" d="M3.80005 16C3.30005 16 2.875 15.8252 2.5249 15.4751C2.17505 15.125 2 14.7002 2 14.2002C2 13.8501 2.1001 13.521 2.30005 13.2124C2.5 12.9043 2.7666 12.6831 3.1001 12.5498L7 11L7 8.75C6.1001 9.7998 5.0542 10.604 3.86255 11.1626C2.6709 11.7207 1.3833 12 0 12L0 10C1.1333 10 2.1626 9.7666 3.0874 9.2998C4.01245 8.8335 4.8501 8.1665 5.6001 7.2998L6.94995 5.7002C7.1499 5.4668 7.3833 5.2915 7.6499 5.1748C7.91675 5.05811 8.19995 5 8.5 5L9.5 5C9.80005 5 10.0833 5.05811 10.3501 5.1748C10.6167 5.2915 10.8501 5.4668 11.05 5.7002L12.3999 7.2998C13.1499 8.1665 13.9875 8.8335 14.9126 9.2998C15.8374 9.7666 16.8667 10 18 10L18 12C16.6167 12 15.3291 11.7207 14.1375 11.1626C12.9458 10.604 11.8999 9.7998 11 8.75L11 11L14.8999 12.5498C15.2334 12.6831 15.5 12.9043 15.7 13.2124C15.8999 13.521 16 13.8501 16 14.2002C16 14.7002 15.825 15.125 15.4751 15.4751C15.125 15.8252 14.7 16 14.2 16L7 16L7 15.5C7 15.0669 7.1416 14.7085 7.42505 14.4248C7.70825 14.1416 8.06665 14 8.5 14L11.5 14C11.6499 14 11.7708 13.9541 11.8625 13.8623C11.9541 13.771 12 13.6499 12 13.5C12 13.3501 11.9541 13.229 11.8625 13.1377C11.7708 13.0459 11.6499 13 11.5 13L8.5 13C7.80005 13 7.20825 13.2417 6.7251 13.7251C6.2417 14.2085 6 14.7998 6 15.5L6 16L3.80005 16ZM9 4C8.44995 4 7.97925 3.8042 7.5874 3.4126C7.1958 3.021 7 2.5498 7 2C7 1.4502 7.1958 0.979004 7.5874 0.587402C7.97925 0.195801 8.44995 0 9 0C9.55005 0 10.0208 0.195801 10.4126 0.587402C10.8042 0.979004 11 1.4502 11 2C11 2.5498 10.8042 3.021 10.4126 3.4126C10.0208 3.8042 9.55005 4 9 4Z" fill="inherit" fill-opacity="1.000000" fill-rule="nonzero"/>
  </symbol>

  <symbol id="creativity" viewBox="0 0 14.5 20">
    <path id="Vector" d="M7.25 20C6.81689 20 6.4248 19.896 6.0752 19.6875C5.7251 19.479 5.4502 19.2002 5.25 18.8501C4.7002 18.8501 4.229 18.6543 3.8374 18.2627C3.4458 17.8706 3.25 17.3999 3.25 16.8501L3.25 13.2998C2.2666 12.6499 1.479 11.7915 0.887695 10.7251C0.295898 9.6582 0 8.5 0 7.25C0 5.2334 0.704102 3.521 2.1123 2.1123C3.521 0.704102 5.2334 0 7.25 0C9.2666 0 10.979 0.704102 12.3877 2.1123C13.7959 3.521 14.5 5.2334 14.5 7.25C14.5 8.5332 14.2041 9.7002 13.6123 10.75C13.021 11.7998 12.2334 12.6499 11.25 13.2998L11.25 16.8501C11.25 17.3999 11.0542 17.8706 10.6626 18.2627C10.271 18.6543 9.7998 18.8501 9.25 18.8501C9.0498 19.2002 8.7749 19.479 8.4248 19.6875C8.0752 19.896 7.68311 20 7.25 20ZM5.25 16.8501L9.25 16.8501L9.25 15.9502L5.25 15.9502L5.25 16.8501ZM5.25 14.9502L9.25 14.9502L9.25 14L5.25 14L5.25 14.9502ZM5.0498 12L6.5 12L6.5 9.2998L4.2998 7.1001L5.3501 6.0498L7.25 7.9502L9.1499 6.0498L10.2002 7.1001L8 9.2998L8 12L9.4502 12C10.3501 11.5669 11.0835 10.9292 11.6499 10.0874C12.2168 9.24561 12.5 8.2998 12.5 7.25C12.5 5.7832 11.9917 4.5415 10.9751 3.5249C9.9585 2.5083 8.7168 2 7.25 2C5.7832 2 4.5415 2.5083 3.5249 3.5249C2.5083 4.5415 2 5.7832 2 7.25C2 8.2998 2.2832 9.24561 2.8501 10.0874C3.4165 10.9292 4.1499 11.5669 5.0498 12Z" fill="inherit" fill-opacity="1.000000" fill-rule="nonzero"/>
  </symbol>

  <symbol id="sport" viewBox="0 0 20 20">
    <path id="Vector" d="M10 20C8.6167 20 7.31689 19.7373 6.1001 19.2124C4.8833 18.6875 3.8252 17.9751 2.9248 17.0752C2.0249 16.1748 1.3125 15.1167 0.787598 13.8999C0.262695 12.6831 0 11.3833 0 10C0 8.6167 0.262695 7.31689 0.787598 6.1001C1.3125 4.8833 2.0249 3.8252 2.9248 2.9248C3.8252 2.0249 4.8833 1.3125 6.1001 0.787598C7.31689 0.262695 8.6167 0 10 0C11.3833 0 12.6831 0.262695 13.8999 0.787598C15.1167 1.3125 16.1748 2.0249 17.0752 2.9248C17.9751 3.8252 18.6875 4.8833 19.2124 6.1001C19.7373 7.31689 20 8.6167 20 10C20 11.3833 19.7373 12.6831 19.2124 13.8999C18.6875 15.1167 17.9751 16.1748 17.0752 17.0752C16.1748 17.9751 15.1167 18.6875 13.8999 19.2124C12.6831 19.7373 11.3833 20 10 20ZM15 7.5L16.3501 7.0498L16.75 5.7002C16.2168 4.8999 15.5752 4.2124 14.8252 3.6377C14.0752 3.0625 13.25 2.6333 12.3501 2.3501L11 3.2998L11 4.7002L15 7.5ZM5 7.5L9 4.7002L9 3.2998L7.6499 2.3501C6.75 2.6333 5.9248 3.0625 5.1748 3.6377C4.4248 4.2124 3.7832 4.8999 3.25 5.7002L3.6499 7.0498L5 7.5ZM3.9502 15.2002L5.1001 15.1001L5.8501 13.75L4.3999 9.3999L3 8.8999L2 9.6499C2 10.7334 2.1499 11.7207 2.4502 12.6123C2.75 13.5044 3.25 14.3667 3.9502 15.2002ZM10 18C10.4331 18 10.8584 17.9668 11.2749 17.8999C11.6919 17.8335 12.1001 17.7334 12.5 17.6001L13.2002 16.1001L12.5498 15L7.4502 15L6.7998 16.1001L7.5 17.6001C7.8999 17.7334 8.30811 17.8335 8.7251 17.8999C9.1416 17.9668 9.56689 18 10 18ZM7.75 13L12.25 13L13.6499 9L10 6.4502L6.3999 9L7.75 13ZM16.0498 15.2002C16.75 14.3667 17.25 13.5044 17.5498 12.6123C17.8501 11.7207 18 10.7334 18 9.6499L17 8.9502L15.6001 9.3999L14.1499 13.75L14.8999 15.1001L16.0498 15.2002Z" fill="inherit" fill-opacity="1.000000" fill-rule="nonzero"/>
  </symbol>

  <symbol id="teaching" viewBox="0 0 22 18">
    <path id="Vector" d="M11 18L4 14.2002L4 8.2002L0 6L11 0L22 6L22 14L20 14L20 7.1001L18 8.2002L18 14.2002L11 18ZM11 9.7002L17.8501 6L11 2.2998L4.1499 6L11 9.7002ZM11 15.7251L16 13.0249L16 9.25L11 12L6 9.25L6 13.0249L11 15.7251Z" fill="inherit" fill-opacity="1.000000" fill-rule="nonzero"/>
  </symbol>

  <symbol id="tourism" viewBox="0 0 18 18">
    <path id="Vector" d="M12 18L6 15.8999L1.3501 17.7002C1.0166 17.8335 0.708252 17.7959 0.425049 17.5874C0.141602 17.3794 0 17.1001 0 16.75L0 2.75C0 2.5332 0.0625 2.3418 0.1875 2.1748C0.3125 2.0083 0.483398 1.8833 0.699951 1.7998L6 0L12 2.1001L16.6499 0.299805C16.9834 0.166504 17.2917 0.204102 17.575 0.412598C17.8584 0.620605 18 0.899902 18 1.25L18 15.25C18 15.4668 17.9375 15.6582 17.8125 15.8252C17.6875 15.9917 17.5166 16.1167 17.3 16.2002L12 18ZM11 15.5498L11 3.8501L7 2.4502L7 14.1499L11 15.5498ZM13 15.5498L16 14.5498L16 2.7002L13 3.8501L13 15.5498ZM2 15.2998L5 14.1499L5 2.4502L2 3.4502L2 15.2998Z" fill="inherit" fill-opacity="1.000000" fill-rule="nonzero"/>
  </symbol>

  <!--  -->
  <symbol id="telegram" viewBox="0 0 13.3333 13.3335">
    <path id="Vector" d="M6.66675 12C8.08105 12 9.43774 11.438 10.438 10.438C11.438 9.4375 12 8.08105 12 6.6665C12 5.25195 11.438 3.89551 10.438 2.89551C9.43774 1.89502 8.08105 1.3335 6.66675 1.3335C5.2522 1.3335 3.89551 1.89502 2.89551 2.89551C1.89526 3.89551 1.33325 5.25195 1.33325 6.6665C1.33325 8.08105 1.89526 9.4375 2.89551 10.438C3.89551 11.438 5.2522 12 6.66675 12ZM6.66675 13.3335C2.98462 13.3335 0 10.3486 0 6.6665C0 2.98486 2.98462 0 6.66675 0C10.3486 0 13.3333 2.98486 13.3333 6.6665C13.3333 10.3486 10.3486 13.3335 6.66675 13.3335ZM4.59326 7.44678L2.92798 6.92725C2.56812 6.81738 2.56592 6.56934 3.00854 6.39111L9.49731 3.88477C9.87402 3.73145 10.0874 3.92529 9.96533 4.41113L8.8606 9.62451C8.78345 9.99609 8.56006 10.0845 8.25 9.91357L6.54932 8.65479L5.75659 9.41992C5.67529 9.49854 5.60938 9.56592 5.48389 9.58252C5.35938 9.6001 5.25659 9.5625 5.1814 9.35596L4.60132 7.44189L4.59326 7.44727L4.59326 7.44678Z" fill="inherit" fill-opacity="1.000000" fill-rule="nonzero"/>
  </symbol>

  <symbol id="whatsapp" viewBox="0 0 13.3333 13.3335">
    <path id="Vector" d="M3.50195 10.9961L3.98462 11.2778C4.79858 11.7529 5.72437 12.002 6.66675 12C7.72144 12 8.75269 11.687 9.62964 11.1011C10.5068 10.5151 11.1904 9.68213 11.594 8.70752C11.9978 7.73291 12.1033 6.66064 11.8975 5.62598C11.6917 4.5918 11.1838 3.64111 10.438 2.89551C9.69214 2.14941 8.7417 1.6416 7.70728 1.43604C6.67261 1.22998 5.60034 1.33545 4.62573 1.73926C3.65112 2.14307 2.81812 2.82666 2.23218 3.70361C1.64624 4.58057 1.33325 5.61182 1.33325 6.6665C1.33325 7.62402 1.58472 8.54199 2.05591 9.34912L2.3374 9.83203L1.9021 11.4326L3.50195 10.9961ZM0.00268555 13.3335L0.904053 10.0215C0.310059 9.00342 -0.00195312 7.84521 0 6.6665C0 2.98486 2.98462 0 6.66675 0C10.3486 0 13.3333 2.98486 13.3333 6.6665C13.3333 10.3486 10.3486 13.3335 6.66675 13.3335C5.48853 13.3354 4.33105 13.0234 3.31323 12.4302L0.00268555 13.3335ZM4.26074 3.53857C4.3501 3.53223 4.43994 3.53223 4.5293 3.53613C4.56543 3.53857 4.60132 3.54248 4.63745 3.54688C4.74341 3.55859 4.86011 3.62354 4.89941 3.71289C5.0979 4.16357 5.29126 4.61719 5.47803 5.07275C5.51929 5.17383 5.49463 5.3042 5.41602 5.43066C5.36182 5.51611 5.30347 5.59912 5.24072 5.67871C5.16528 5.77539 5.00342 5.95264 5.00342 5.95264C5.00342 5.95264 4.93726 6.03125 4.96265 6.12939C4.97192 6.1665 5.00269 6.2207 5.03076 6.26611L5.07007 6.3291C5.24072 6.61377 5.46997 6.90283 5.75 7.1748C5.83008 7.25195 5.90796 7.33154 5.99194 7.40527C6.30396 7.68066 6.65723 7.90527 7.03857 8.07178L7.04199 8.07324C7.09863 8.09814 7.12744 8.11133 7.20996 8.14648C7.25122 8.16406 7.29395 8.1792 7.3374 8.19043C7.38208 8.20215 7.4292 8.19971 7.4729 8.18457C7.51636 8.16895 7.55444 8.14111 7.58203 8.104C8.0647 7.51953 8.10864 7.48145 8.11279 7.48145L8.11279 7.48291C8.14624 7.45117 8.18604 7.42773 8.22949 7.41309C8.27295 7.39844 8.31909 7.39355 8.36475 7.39795C8.40479 7.40088 8.44531 7.4082 8.48267 7.4248C8.83667 7.58643 9.41602 7.83936 9.41602 7.83936L9.80396 8.01318C9.86938 8.04443 9.92871 8.11865 9.93066 8.18994C9.93335 8.23486 9.93726 8.30664 9.92212 8.43848C9.90063 8.61133 9.84863 8.81885 9.79663 8.92725C9.76099 9.00146 9.71387 9.06934 9.65674 9.12891C9.58936 9.19922 9.51587 9.26367 9.43677 9.3208C9.40942 9.34131 9.38159 9.36133 9.35327 9.38086C9.27051 9.43311 9.1853 9.48242 9.0979 9.52734C8.92627 9.61865 8.73682 9.6709 8.54272 9.68066C8.41943 9.6875 8.2959 9.69678 8.17212 9.68994C8.16675 9.68994 7.79346 9.63184 7.79346 9.63184C6.84546 9.38281 5.96899 8.91553 5.2334 8.26807C5.08276 8.13525 4.94336 7.99268 4.80078 7.85059C4.20728 7.26074 3.75928 6.62402 3.4873 6.02246C3.34814 5.72754 3.27295 5.40625 3.2666 5.08008C3.26392 4.67529 3.39624 4.28125 3.64258 3.95996C3.69141 3.89746 3.7373 3.83203 3.81665 3.75684C3.90137 3.67676 3.95459 3.63379 4.0127 3.60449C4.08984 3.56592 4.17383 3.54346 4.26001 3.53809L4.26074 3.53857Z" fill="inherit" fill-opacity="1.000000" fill-rule="nonzero"/>
  </symbol>

  <symbol id="" viewBox="">
  </symbol>
  <symbol id="" viewBox="">
  </symbol>
  <symbol id="" viewBox="">
  </symbol>
</svg>










